<?xml version="1.0" encoding="utf-8" standalone="no"?>
<!DOCTYPE svg PUBLIC "-//W3C//DTD SVG 1.1//EN"
  "http://www.w3.org/Graphics/SVG/1.1/DTD/svg11.dtd">
<!-- Created with matplotlib (http://matplotlib.org/) -->
<svg height="1008pt" version="1.1" viewBox="0 0 1728 1008" width="1728pt" xmlns="http://www.w3.org/2000/svg" xmlns:xlink="http://www.w3.org/1999/xlink">
 <defs>
  <style type="text/css">
*{stroke-linecap:butt;stroke-linejoin:round;}
  </style>
 </defs>
 <g id="figure_1">
  <g id="patch_1">
   <path d="M 0 1008 
L 1728 1008 
L 1728 0 
L 0 0 
z
" style="fill:none;"/>
  </g>
  <g id="axes_1">
   <g id="patch_2">
    <path d="M 216 882 
L 1555.2 882 
L 1555.2 120.96 
L 216 120.96 
z
" style="fill:none;"/>
   </g>
   <g id="patch_3">
    <path clip-path="url(#pc657994f8d)" d="M 276.872727 279067.249213 
L 282.929715 279067.249213 
L 282.929715 192.477228 
L 276.872727 192.477228 
z
" style="fill:#ed4322;"/>
   </g>
   <g id="patch_4">
    <path clip-path="url(#pc657994f8d)" d="M 282.929715 279067.249213 
L 288.986703 279067.249213 
L 288.986703 155.552727 
L 282.929715 155.552727 
z
" style="fill:#ed4322;"/>
   </g>
   <g id="patch_5">
    <path clip-path="url(#pc657994f8d)" d="M 288.986703 279067.249213 
L 295.043691 279067.249213 
L 295.043691 227.961206 
L 288.986703 227.961206 
z
" style="fill:#ed4322;"/>
   </g>
   <g id="patch_6">
    <path clip-path="url(#pc657994f8d)" d="M 295.043691 279067.249213 
L 301.100678 279067.249213 
L 301.100678 263.124776 
L 295.043691 263.124776 
z
" style="fill:#ed4322;"/>
   </g>
   <g id="patch_7">
    <path clip-path="url(#pc657994f8d)" d="M 301.100678 279067.249213 
L 307.157666 279067.249213 
L 307.157666 281.826799 
L 301.100678 281.826799 
z
" style="fill:#ed4322;"/>
   </g>
   <g id="patch_8">
    <path clip-path="url(#pc657994f8d)" d="M 307.157666 279067.249213 
L 313.214654 279067.249213 
L 313.214654 304.61974 
L 307.157666 304.61974 
z
" style="fill:#ed4322;"/>
   </g>
   <g id="patch_9">
    <path clip-path="url(#pc657994f8d)" d="M 313.214654 279067.249213 
L 319.271642 279067.249213 
L 319.271642 315.095403 
L 313.214654 315.095403 
z
" style="fill:#ed4322;"/>
   </g>
   <g id="patch_10">
    <path clip-path="url(#pc657994f8d)" d="M 319.271642 279067.249213 
L 325.32863 279067.249213 
L 325.32863 328.622415 
L 319.271642 328.622415 
z
" style="fill:#ed4322;"/>
   </g>
   <g id="patch_11">
    <path clip-path="url(#pc657994f8d)" d="M 325.32863 279067.249213 
L 331.385617 279067.249213 
L 331.385617 331.901601 
L 325.32863 331.901601 
z
" style="fill:#ed4322;"/>
   </g>
   <g id="patch_12">
    <path clip-path="url(#pc657994f8d)" d="M 331.385617 279067.249213 
L 337.442605 279067.249213 
L 337.442605 345.147814 
L 331.385617 345.147814 
z
" style="fill:#ed4322;"/>
   </g>
   <g id="patch_13">
    <path clip-path="url(#pc657994f8d)" d="M 337.442605 279067.249213 
L 343.499593 279067.249213 
L 343.499593 443.501257 
L 337.442605 443.501257 
z
" style="fill:#ed4322;"/>
   </g>
   <g id="patch_14">
    <path clip-path="url(#pc657994f8d)" d="M 343.499593 279067.249213 
L 349.556581 279067.249213 
L 349.556581 453.627613 
L 343.499593 453.627613 
z
" style="fill:#ed4322;"/>
   </g>
   <g id="patch_15">
    <path clip-path="url(#pc657994f8d)" d="M 349.556581 279067.249213 
L 355.613569 279067.249213 
L 355.613569 454.418631 
L 349.556581 454.418631 
z
" style="fill:#ed4322;"/>
   </g>
   <g id="patch_16">
    <path clip-path="url(#pc657994f8d)" d="M 355.613569 279067.249213 
L 361.670556 279067.249213 
L 361.670556 476.159146 
L 355.613569 476.159146 
z
" style="fill:#ed4322;"/>
   </g>
   <g id="patch_17">
    <path clip-path="url(#pc657994f8d)" d="M 361.670556 279067.249213 
L 367.727544 279067.249213 
L 367.727544 503.344753 
L 361.670556 503.344753 
z
" style="fill:#ed4322;"/>
   </g>
   <g id="patch_18">
    <path clip-path="url(#pc657994f8d)" d="M 367.727544 279067.249213 
L 373.784532 279067.249213 
L 373.784532 495.95831 
L 367.727544 495.95831 
z
" style="fill:#ed4322;"/>
   </g>
   <g id="patch_19">
    <path clip-path="url(#pc657994f8d)" d="M 373.784532 279067.249213 
L 379.84152 279067.249213 
L 379.84152 479.802417 
L 373.784532 479.802417 
z
" style="fill:#ed4322;"/>
   </g>
   <g id="patch_20">
    <path clip-path="url(#pc657994f8d)" d="M 379.84152 279067.249213 
L 385.898507 279067.249213 
L 385.898507 510.006606 
L 379.84152 510.006606 
z
" style="fill:#ed4322;"/>
   </g>
   <g id="patch_21">
    <path clip-path="url(#pc657994f8d)" d="M 385.898507 279067.249213 
L 391.955495 279067.249213 
L 391.955495 518.029999 
L 385.898507 518.029999 
z
" style="fill:#ed4322;"/>
   </g>
   <g id="patch_22">
    <path clip-path="url(#pc657994f8d)" d="M 391.955495 279067.249213 
L 398.012483 279067.249213 
L 398.012483 522.053404 
L 391.955495 522.053404 
z
" style="fill:#ed4322;"/>
   </g>
   <g id="patch_23">
    <path clip-path="url(#pc657994f8d)" d="M 398.012483 279067.249213 
L 404.069471 279067.249213 
L 404.069471 522.513843 
L 398.012483 522.513843 
z
" style="fill:#ed4322;"/>
   </g>
   <g id="patch_24">
    <path clip-path="url(#pc657994f8d)" d="M 404.069471 279067.249213 
L 410.126459 279067.249213 
L 410.126459 524.88201 
L 404.069471 524.88201 
z
" style="fill:#ed4322;"/>
   </g>
   <g id="patch_25">
    <path clip-path="url(#pc657994f8d)" d="M 410.126459 279067.249213 
L 416.183446 279067.249213 
L 416.183446 551.297846 
L 410.126459 551.297846 
z
" style="fill:#ed4322;"/>
   </g>
   <g id="patch_26">
    <path clip-path="url(#pc657994f8d)" d="M 416.183446 279067.249213 
L 422.240434 279067.249213 
L 422.240434 543.051294 
L 416.183446 543.051294 
z
" style="fill:#ed4322;"/>
   </g>
   <g id="patch_27">
    <path clip-path="url(#pc657994f8d)" d="M 422.240434 279067.249213 
L 428.297422 279067.249213 
L 428.297422 524.009564 
L 422.240434 524.009564 
z
" style="fill:#ed4322;"/>
   </g>
   <g id="patch_28">
    <path clip-path="url(#pc657994f8d)" d="M 428.297422 279067.249213 
L 434.35441 279067.249213 
L 434.35441 550.980932 
L 428.297422 550.980932 
z
" style="fill:#ed4322;"/>
   </g>
   <g id="patch_29">
    <path clip-path="url(#pc657994f8d)" d="M 434.35441 279067.249213 
L 440.411398 279067.249213 
L 440.411398 570.906712 
L 434.35441 570.906712 
z
" style="fill:#ed4322;"/>
   </g>
   <g id="patch_30">
    <path clip-path="url(#pc657994f8d)" d="M 440.411398 279067.249213 
L 446.468385 279067.249213 
L 446.468385 561.817324 
L 440.411398 561.817324 
z
" style="fill:#ed4322;"/>
   </g>
   <g id="patch_31">
    <path clip-path="url(#pc657994f8d)" d="M 446.468385 279067.249213 
L 452.525373 279067.249213 
L 452.525373 557.817778 
L 446.468385 557.817778 
z
" style="fill:#ed4322;"/>
   </g>
   <g id="patch_32">
    <path clip-path="url(#pc657994f8d)" d="M 452.525373 279067.249213 
L 458.582361 279067.249213 
L 458.582361 560.38741 
L 452.525373 560.38741 
z
" style="fill:#ed4322;"/>
   </g>
   <g id="patch_33">
    <path clip-path="url(#pc657994f8d)" d="M 458.582361 279067.249213 
L 464.639349 279067.249213 
L 464.639349 551.102724 
L 458.582361 551.102724 
z
" style="fill:#ed4322;"/>
   </g>
   <g id="patch_34">
    <path clip-path="url(#pc657994f8d)" d="M 464.639349 279067.249213 
L 470.696336 279067.249213 
L 470.696336 557.543235 
L 464.639349 557.543235 
z
" style="fill:#ed4322;"/>
   </g>
   <g id="patch_35">
    <path clip-path="url(#pc657994f8d)" d="M 470.696336 279067.249213 
L 476.753324 279067.249213 
L 476.753324 555.495445 
L 470.696336 555.495445 
z
" style="fill:#ed4322;"/>
   </g>
   <g id="patch_36">
    <path clip-path="url(#pc657994f8d)" d="M 476.753324 279067.249213 
L 482.810312 279067.249213 
L 482.810312 586.320191 
L 476.753324 586.320191 
z
" style="fill:#ed4322;"/>
   </g>
   <g id="patch_37">
    <path clip-path="url(#pc657994f8d)" d="M 482.810312 279067.249213 
L 488.8673 279067.249213 
L 488.8673 588.982909 
L 482.810312 588.982909 
z
" style="fill:#ed4322;"/>
   </g>
   <g id="patch_38">
    <path clip-path="url(#pc657994f8d)" d="M 488.8673 279067.249213 
L 494.924288 279067.249213 
L 494.924288 584.784739 
L 488.8673 584.784739 
z
" style="fill:#ed4322;"/>
   </g>
   <g id="patch_39">
    <path clip-path="url(#pc657994f8d)" d="M 494.924288 279067.249213 
L 500.981275 279067.249213 
L 500.981275 553.855316 
L 494.924288 553.855316 
z
" style="fill:#ed4322;"/>
   </g>
   <g id="patch_40">
    <path clip-path="url(#pc657994f8d)" d="M 500.981275 279067.249213 
L 507.038263 279067.249213 
L 507.038263 576.793335 
L 500.981275 576.793335 
z
" style="fill:#ed4322;"/>
   </g>
   <g id="patch_41">
    <path clip-path="url(#pc657994f8d)" d="M 507.038263 279067.249213 
L 513.095251 279067.249213 
L 513.095251 613.515079 
L 507.038263 613.515079 
z
" style="fill:#ed4322;"/>
   </g>
   <g id="patch_42">
    <path clip-path="url(#pc657994f8d)" d="M 513.095251 279067.249213 
L 519.152239 279067.249213 
L 519.152239 612.523558 
L 513.095251 612.523558 
z
" style="fill:#ed4322;"/>
   </g>
   <g id="patch_43">
    <path clip-path="url(#pc657994f8d)" d="M 519.152239 279067.249213 
L 525.209227 279067.249213 
L 525.209227 587.062466 
L 519.152239 587.062466 
z
" style="fill:#ed4322;"/>
   </g>
   <g id="patch_44">
    <path clip-path="url(#pc657994f8d)" d="M 525.209227 279067.249213 
L 531.266214 279067.249213 
L 531.266214 585.377136 
L 525.209227 585.377136 
z
" style="fill:#ed4322;"/>
   </g>
   <g id="patch_45">
    <path clip-path="url(#pc657994f8d)" d="M 531.266214 279067.249213 
L 537.323202 279067.249213 
L 537.323202 588.35042 
L 531.266214 588.35042 
z
" style="fill:#ed4322;"/>
   </g>
   <g id="patch_46">
    <path clip-path="url(#pc657994f8d)" d="M 537.323202 279067.249213 
L 543.38019 279067.249213 
L 543.38019 594.131222 
L 537.323202 594.131222 
z
" style="fill:#ed4322;"/>
   </g>
   <g id="patch_47">
    <path clip-path="url(#pc657994f8d)" d="M 543.38019 279067.249213 
L 549.437178 279067.249213 
L 549.437178 611.36584 
L 543.38019 611.36584 
z
" style="fill:#ed4322;"/>
   </g>
   <g id="patch_48">
    <path clip-path="url(#pc657994f8d)" d="M 549.437178 279067.249213 
L 555.494166 279067.249213 
L 555.494166 600.105845 
L 549.437178 600.105845 
z
" style="fill:#ed4322;"/>
   </g>
   <g id="patch_49">
    <path clip-path="url(#pc657994f8d)" d="M 555.494166 279067.249213 
L 561.551153 279067.249213 
L 561.551153 623.520916 
L 555.494166 623.520916 
z
" style="fill:#ed4322;"/>
   </g>
   <g id="patch_50">
    <path clip-path="url(#pc657994f8d)" d="M 561.551153 279067.249213 
L 567.608141 279067.249213 
L 567.608141 606.122684 
L 561.551153 606.122684 
z
" style="fill:#ed4322;"/>
   </g>
   <g id="patch_51">
    <path clip-path="url(#pc657994f8d)" d="M 567.608141 279067.249213 
L 573.665129 279067.249213 
L 573.665129 590.528094 
L 567.608141 590.528094 
z
" style="fill:#ed4322;"/>
   </g>
   <g id="patch_52">
    <path clip-path="url(#pc657994f8d)" d="M 573.665129 279067.249213 
L 579.722117 279067.249213 
L 579.722117 611.902929 
L 573.665129 611.902929 
z
" style="fill:#ed4322;"/>
   </g>
   <g id="patch_53">
    <path clip-path="url(#pc657994f8d)" d="M 579.722117 279067.249213 
L 585.779104 279067.249213 
L 585.779104 621.318204 
L 579.722117 621.318204 
z
" style="fill:#ed4322;"/>
   </g>
   <g id="patch_54">
    <path clip-path="url(#pc657994f8d)" d="M 585.779104 279067.249213 
L 591.836092 279067.249213 
L 591.836092 631.659072 
L 585.779104 631.659072 
z
" style="fill:#ed4322;"/>
   </g>
   <g id="patch_55">
    <path clip-path="url(#pc657994f8d)" d="M 591.836092 279067.249213 
L 597.89308 279067.249213 
L 597.89308 628.869317 
L 591.836092 628.869317 
z
" style="fill:#ed4322;"/>
   </g>
   <g id="patch_56">
    <path clip-path="url(#pc657994f8d)" d="M 597.89308 279067.249213 
L 603.950068 279067.249213 
L 603.950068 612.428908 
L 597.89308 612.428908 
z
" style="fill:#ed4322;"/>
   </g>
   <g id="patch_57">
    <path clip-path="url(#pc657994f8d)" d="M 603.950068 279067.249213 
L 610.007056 279067.249213 
L 610.007056 621.740933 
L 603.950068 621.740933 
z
" style="fill:#ed4322;"/>
   </g>
   <g id="patch_58">
    <path clip-path="url(#pc657994f8d)" d="M 610.007056 279067.249213 
L 616.064043 279067.249213 
L 616.064043 613.310675 
L 610.007056 613.310675 
z
" style="fill:#ed4322;"/>
   </g>
   <g id="patch_59">
    <path clip-path="url(#pc657994f8d)" d="M 616.064043 279067.249213 
L 622.121031 279067.249213 
L 622.121031 608.205691 
L 616.064043 608.205691 
z
" style="fill:#ed4322;"/>
   </g>
   <g id="patch_60">
    <path clip-path="url(#pc657994f8d)" d="M 622.121031 279067.249213 
L 628.178019 279067.249213 
L 628.178019 636.182543 
L 622.121031 636.182543 
z
" style="fill:#ed4322;"/>
   </g>
   <g id="patch_61">
    <path clip-path="url(#pc657994f8d)" d="M 628.178019 279067.249213 
L 634.235007 279067.249213 
L 634.235007 640.404198 
L 628.178019 640.404198 
z
" style="fill:#ed4322;"/>
   </g>
   <g id="patch_62">
    <path clip-path="url(#pc657994f8d)" d="M 634.235007 279067.249213 
L 640.291995 279067.249213 
L 640.291995 625.885507 
L 634.235007 625.885507 
z
" style="fill:#ed4322;"/>
   </g>
   <g id="patch_63">
    <path clip-path="url(#pc657994f8d)" d="M 640.291995 279067.249213 
L 646.348982 279067.249213 
L 646.348982 603.986845 
L 640.291995 603.986845 
z
" style="fill:#ed4322;"/>
   </g>
   <g id="patch_64">
    <path clip-path="url(#pc657994f8d)" d="M 646.348982 279067.249213 
L 652.40597 279067.249213 
L 652.40597 619.412587 
L 646.348982 619.412587 
z
" style="fill:#ed4322;"/>
   </g>
   <g id="patch_65">
    <path clip-path="url(#pc657994f8d)" d="M 652.40597 279067.249213 
L 658.462958 279067.249213 
L 658.462958 651.262437 
L 652.40597 651.262437 
z
" style="fill:#ed4322;"/>
   </g>
   <g id="patch_66">
    <path clip-path="url(#pc657994f8d)" d="M 658.462958 279067.249213 
L 664.519946 279067.249213 
L 664.519946 633.351609 
L 658.462958 633.351609 
z
" style="fill:#ed4322;"/>
   </g>
   <g id="patch_67">
    <path clip-path="url(#pc657994f8d)" d="M 664.519946 279067.249213 
L 670.576934 279067.249213 
L 670.576934 598.4096 
L 664.519946 598.4096 
z
" style="fill:#ed4322;"/>
   </g>
   <g id="patch_68">
    <path clip-path="url(#pc657994f8d)" d="M 670.576934 279067.249213 
L 676.633921 279067.249213 
L 676.633921 643.530399 
L 670.576934 643.530399 
z
" style="fill:#ed4322;"/>
   </g>
   <g id="patch_69">
    <path clip-path="url(#pc657994f8d)" d="M 676.633921 279067.249213 
L 682.690909 279067.249213 
L 682.690909 643.041451 
L 676.633921 643.041451 
z
" style="fill:#ed4322;"/>
   </g>
   <g id="patch_70">
    <path clip-path="url(#pc657994f8d)" d="M 682.690909 279067.249213 
L 688.747897 279067.249213 
L 688.747897 638.157678 
L 682.690909 638.157678 
z
" style="fill:#ed4322;"/>
   </g>
   <g id="patch_71">
    <path clip-path="url(#pc657994f8d)" d="M 688.747897 279067.249213 
L 694.804885 279067.249213 
L 694.804885 668.590187 
L 688.747897 668.590187 
z
" style="fill:#ed4322;"/>
   </g>
   <g id="patch_72">
    <path clip-path="url(#pc657994f8d)" d="M 694.804885 279067.249213 
L 700.861872 279067.249213 
L 700.861872 668.160065 
L 694.804885 668.160065 
z
" style="fill:#ed4322;"/>
   </g>
   <g id="patch_73">
    <path clip-path="url(#pc657994f8d)" d="M 700.861872 279067.249213 
L 706.91886 279067.249213 
L 706.91886 650.092686 
L 700.861872 650.092686 
z
" style="fill:#ed4322;"/>
   </g>
   <g id="patch_74">
    <path clip-path="url(#pc657994f8d)" d="M 706.91886 279067.249213 
L 712.975848 279067.249213 
L 712.975848 638.559979 
L 706.91886 638.559979 
z
" style="fill:#ed4322;"/>
   </g>
   <g id="patch_75">
    <path clip-path="url(#pc657994f8d)" d="M 712.975848 279067.249213 
L 719.032836 279067.249213 
L 719.032836 634.045043 
L 712.975848 634.045043 
z
" style="fill:#ed4322;"/>
   </g>
   <g id="patch_76">
    <path clip-path="url(#pc657994f8d)" d="M 719.032836 279067.249213 
L 725.089824 279067.249213 
L 725.089824 639.79197 
L 719.032836 639.79197 
z
" style="fill:#ed4322;"/>
   </g>
   <g id="patch_77">
    <path clip-path="url(#pc657994f8d)" d="M 725.089824 279067.249213 
L 731.146811 279067.249213 
L 731.146811 688.27681 
L 725.089824 688.27681 
z
" style="fill:#ed4322;"/>
   </g>
   <g id="patch_78">
    <path clip-path="url(#pc657994f8d)" d="M 731.146811 279067.249213 
L 737.203799 279067.249213 
L 737.203799 676.032883 
L 731.146811 676.032883 
z
" style="fill:#ed4322;"/>
   </g>
   <g id="patch_79">
    <path clip-path="url(#pc657994f8d)" d="M 737.203799 279067.249213 
L 743.260787 279067.249213 
L 743.260787 680.848944 
L 737.203799 680.848944 
z
" style="fill:#ed4322;"/>
   </g>
   <g id="patch_80">
    <path clip-path="url(#pc657994f8d)" d="M 743.260787 279067.249213 
L 749.317775 279067.249213 
L 749.317775 676.078728 
L 743.260787 676.078728 
z
" style="fill:#ed4322;"/>
   </g>
   <g id="patch_81">
    <path clip-path="url(#pc657994f8d)" d="M 749.317775 279067.249213 
L 755.374763 279067.249213 
L 755.374763 676.814617 
L 749.317775 676.814617 
z
" style="fill:#ed4322;"/>
   </g>
   <g id="patch_82">
    <path clip-path="url(#pc657994f8d)" d="M 755.374763 279067.249213 
L 761.43175 279067.249213 
L 761.43175 660.246579 
L 755.374763 660.246579 
z
" style="fill:#ed4322;"/>
   </g>
   <g id="patch_83">
    <path clip-path="url(#pc657994f8d)" d="M 761.43175 279067.249213 
L 767.488738 279067.249213 
L 767.488738 661.134363 
L 761.43175 661.134363 
z
" style="fill:#ed4322;"/>
   </g>
   <g id="patch_84">
    <path clip-path="url(#pc657994f8d)" d="M 767.488738 279067.249213 
L 773.545726 279067.249213 
L 773.545726 652.858894 
L 767.488738 652.858894 
z
" style="fill:#ed4322;"/>
   </g>
   <g id="patch_85">
    <path clip-path="url(#pc657994f8d)" d="M 773.545726 279067.249213 
L 779.602714 279067.249213 
L 779.602714 696.491383 
L 773.545726 696.491383 
z
" style="fill:#ed4322;"/>
   </g>
   <g id="patch_86">
    <path clip-path="url(#pc657994f8d)" d="M 779.602714 279067.249213 
L 785.659701 279067.249213 
L 785.659701 668.117137 
L 779.602714 668.117137 
z
" style="fill:#ed4322;"/>
   </g>
   <g id="patch_87">
    <path clip-path="url(#pc657994f8d)" d="M 785.659701 279067.249213 
L 791.716689 279067.249213 
L 791.716689 659.106139 
L 785.659701 659.106139 
z
" style="fill:#ed4322;"/>
   </g>
   <g id="patch_88">
    <path clip-path="url(#pc657994f8d)" d="M 791.716689 279067.249213 
L 797.773677 279067.249213 
L 797.773677 683.672534 
L 791.716689 683.672534 
z
" style="fill:#ed4322;"/>
   </g>
   <g id="patch_89">
    <path clip-path="url(#pc657994f8d)" d="M 797.773677 279067.249213 
L 803.830665 279067.249213 
L 803.830665 707.073666 
L 797.773677 707.073666 
z
" style="fill:#ed4322;"/>
   </g>
   <g id="patch_90">
    <path clip-path="url(#pc657994f8d)" d="M 803.830665 279067.249213 
L 809.887653 279067.249213 
L 809.887653 703.739649 
L 803.830665 703.739649 
z
" style="fill:#ed4322;"/>
   </g>
   <g id="patch_91">
    <path clip-path="url(#pc657994f8d)" d="M 809.887653 279067.249213 
L 815.94464 279067.249213 
L 815.94464 691.204248 
L 809.887653 691.204248 
z
" style="fill:#ed4322;"/>
   </g>
   <g id="patch_92">
    <path clip-path="url(#pc657994f8d)" d="M 815.94464 279067.249213 
L 822.001628 279067.249213 
L 822.001628 659.785102 
L 815.94464 659.785102 
z
" style="fill:#ed4322;"/>
   </g>
   <g id="patch_93">
    <path clip-path="url(#pc657994f8d)" d="M 822.001628 279067.249213 
L 828.058616 279067.249213 
L 828.058616 669.781005 
L 822.001628 669.781005 
z
" style="fill:#ed4322;"/>
   </g>
   <g id="patch_94">
    <path clip-path="url(#pc657994f8d)" d="M 828.058616 279067.249213 
L 834.115604 279067.249213 
L 834.115604 680.563052 
L 828.058616 680.563052 
z
" style="fill:#ed4322;"/>
   </g>
   <g id="patch_95">
    <path clip-path="url(#pc657994f8d)" d="M 834.115604 279067.249213 
L 840.172592 279067.249213 
L 840.172592 712.595388 
L 834.115604 712.595388 
z
" style="fill:#ed4322;"/>
   </g>
   <g id="patch_96">
    <path clip-path="url(#pc657994f8d)" d="M 840.172592 279067.249213 
L 846.229579 279067.249213 
L 846.229579 709.954655 
L 840.172592 709.954655 
z
" style="fill:#ed4322;"/>
   </g>
   <g id="patch_97">
    <path clip-path="url(#pc657994f8d)" d="M 846.229579 279067.249213 
L 852.286567 279067.249213 
L 852.286567 718.057146 
L 846.229579 718.057146 
z
" style="fill:#ed4322;"/>
   </g>
   <g id="patch_98">
    <path clip-path="url(#pc657994f8d)" d="M 852.286567 279067.249213 
L 858.343555 279067.249213 
L 858.343555 711.698423 
L 852.286567 711.698423 
z
" style="fill:#ed4322;"/>
   </g>
   <g id="patch_99">
    <path clip-path="url(#pc657994f8d)" d="M 858.343555 279067.249213 
L 864.400543 279067.249213 
L 864.400543 674.529731 
L 858.343555 674.529731 
z
" style="fill:#ed4322;"/>
   </g>
   <g id="patch_100">
    <path clip-path="url(#pc657994f8d)" d="M 864.400543 279067.249213 
L 870.457531 279067.249213 
L 870.457531 673.380917 
L 864.400543 673.380917 
z
" style="fill:#ed4322;"/>
   </g>
   <g id="patch_101">
    <path clip-path="url(#pc657994f8d)" d="M 870.457531 279067.249213 
L 876.514518 279067.249213 
L 876.514518 717.992193 
L 870.457531 717.992193 
z
" style="fill:#ed4322;"/>
   </g>
   <g id="patch_102">
    <path clip-path="url(#pc657994f8d)" d="M 876.514518 279067.249213 
L 882.571506 279067.249213 
L 882.571506 701.030104 
L 876.514518 701.030104 
z
" style="fill:#ed4322;"/>
   </g>
   <g id="patch_103">
    <path clip-path="url(#pc657994f8d)" d="M 882.571506 279067.249213 
L 888.628494 279067.249213 
L 888.628494 680.206639 
L 882.571506 680.206639 
z
" style="fill:#ed4322;"/>
   </g>
   <g id="patch_104">
    <path clip-path="url(#pc657994f8d)" d="M 888.628494 279067.249213 
L 894.685482 279067.249213 
L 894.685482 671.203682 
L 888.628494 671.203682 
z
" style="fill:#ed4322;"/>
   </g>
   <g id="patch_105">
    <path clip-path="url(#pc657994f8d)" d="M 894.685482 279067.249213 
L 900.742469 279067.249213 
L 900.742469 717.927275 
L 894.685482 717.927275 
z
" style="fill:#ed4322;"/>
   </g>
   <g id="patch_106">
    <path clip-path="url(#pc657994f8d)" d="M 900.742469 279067.249213 
L 906.799457 279067.249213 
L 906.799457 693.91182 
L 900.742469 693.91182 
z
" style="fill:#ed4322;"/>
   </g>
   <g id="patch_107">
    <path clip-path="url(#pc657994f8d)" d="M 906.799457 279067.249213 
L 912.856445 279067.249213 
L 912.856445 717.765133 
L 906.799457 717.765133 
z
" style="fill:#ed4322;"/>
   </g>
   <g id="patch_108">
    <path clip-path="url(#pc657994f8d)" d="M 912.856445 279067.249213 
L 918.913433 279067.249213 
L 918.913433 689.500755 
L 912.856445 689.500755 
z
" style="fill:#ed4322;"/>
   </g>
   <g id="patch_109">
    <path clip-path="url(#pc657994f8d)" d="M 918.913433 279067.249213 
L 924.970421 279067.249213 
L 924.970421 735.167069 
L 918.913433 735.167069 
z
" style="fill:#ed4322;"/>
   </g>
   <g id="patch_110">
    <path clip-path="url(#pc657994f8d)" d="M 924.970421 279067.249213 
L 931.027408 279067.249213 
L 931.027408 699.991082 
L 924.970421 699.991082 
z
" style="fill:#ed4322;"/>
   </g>
   <g id="patch_111">
    <path clip-path="url(#pc657994f8d)" d="M 931.027408 279067.249213 
L 937.084396 279067.249213 
L 937.084396 710.106611 
L 931.027408 710.106611 
z
" style="fill:#ed4322;"/>
   </g>
   <g id="patch_112">
    <path clip-path="url(#pc657994f8d)" d="M 937.084396 279067.249213 
L 943.141384 279067.249213 
L 943.141384 697.363661 
L 937.084396 697.363661 
z
" style="fill:#ed4322;"/>
   </g>
   <g id="patch_113">
    <path clip-path="url(#pc657994f8d)" d="M 943.141384 279067.249213 
L 949.198372 279067.249213 
L 949.198372 717.797544 
L 943.141384 717.797544 
z
" style="fill:#ed4322;"/>
   </g>
   <g id="patch_114">
    <path clip-path="url(#pc657994f8d)" d="M 949.198372 279067.249213 
L 955.25536 279067.249213 
L 955.25536 716.059709 
L 949.198372 716.059709 
z
" style="fill:#ed4322;"/>
   </g>
   <g id="patch_115">
    <path clip-path="url(#pc657994f8d)" d="M 955.25536 279067.249213 
L 961.312347 279067.249213 
L 961.312347 710.076204 
L 955.25536 710.076204 
z
" style="fill:#ed4322;"/>
   </g>
   <g id="patch_116">
    <path clip-path="url(#pc657994f8d)" d="M 961.312347 279067.249213 
L 967.369335 279067.249213 
L 967.369335 695.463691 
L 961.312347 695.463691 
z
" style="fill:#ed4322;"/>
   </g>
   <g id="patch_117">
    <path clip-path="url(#pc657994f8d)" d="M 967.369335 279067.249213 
L 973.426323 279067.249213 
L 973.426323 736.75005 
L 967.369335 736.75005 
z
" style="fill:#ed4322;"/>
   </g>
   <g id="patch_118">
    <path clip-path="url(#pc657994f8d)" d="M 973.426323 279067.249213 
L 979.483311 279067.249213 
L 979.483311 743.941231 
L 973.426323 743.941231 
z
" style="fill:#ed4322;"/>
   </g>
   <g id="patch_119">
    <path clip-path="url(#pc657994f8d)" d="M 979.483311 279067.249213 
L 985.540299 279067.249213 
L 985.540299 750.308589 
L 979.483311 750.308589 
z
" style="fill:#ed4322;"/>
   </g>
   <g id="patch_120">
    <path clip-path="url(#pc657994f8d)" d="M 985.540299 279067.249213 
L 991.597286 279067.249213 
L 991.597286 740.096788 
L 985.540299 740.096788 
z
" style="fill:#ed4322;"/>
   </g>
   <g id="patch_121">
    <path clip-path="url(#pc657994f8d)" d="M 991.597286 279067.249213 
L 997.654274 279067.249213 
L 997.654274 759.068855 
L 991.597286 759.068855 
z
" style="fill:#ed4322;"/>
   </g>
   <g id="patch_122">
    <path clip-path="url(#pc657994f8d)" d="M 997.654274 279067.249213 
L 1003.711262 279067.249213 
L 1003.711262 742.898666 
L 997.654274 742.898666 
z
" style="fill:#ed4322;"/>
   </g>
   <g id="patch_123">
    <path clip-path="url(#pc657994f8d)" d="M 1003.711262 279067.249213 
L 1009.76825 279067.249213 
L 1009.76825 661.255933 
L 1003.711262 661.255933 
z
" style="fill:#ed4322;"/>
   </g>
   <g id="patch_124">
    <path clip-path="url(#pc657994f8d)" d="M 1009.76825 279067.249213 
L 1015.825237 279067.249213 
L 1015.825237 705.952042 
L 1009.76825 705.952042 
z
" style="fill:#ed4322;"/>
   </g>
   <g id="patch_125">
    <path clip-path="url(#pc657994f8d)" d="M 1015.825237 279067.249213 
L 1021.882225 279067.249213 
L 1021.882225 755.825277 
L 1015.825237 755.825277 
z
" style="fill:#ed4322;"/>
   </g>
   <g id="patch_126">
    <path clip-path="url(#pc657994f8d)" d="M 1021.882225 279067.249213 
L 1027.939213 279067.249213 
L 1027.939213 751.80389 
L 1021.882225 751.80389 
z
" style="fill:#ed4322;"/>
   </g>
   <g id="patch_127">
    <path clip-path="url(#pc657994f8d)" d="M 1027.939213 279067.249213 
L 1033.996201 279067.249213 
L 1033.996201 758.431281 
L 1027.939213 758.431281 
z
" style="fill:#ed4322;"/>
   </g>
   <g id="patch_128">
    <path clip-path="url(#pc657994f8d)" d="M 1033.996201 279067.249213 
L 1040.053189 279067.249213 
L 1040.053189 732.64745 
L 1033.996201 732.64745 
z
" style="fill:#ed4322;"/>
   </g>
   <g id="patch_129">
    <path clip-path="url(#pc657994f8d)" d="M 1040.053189 279067.249213 
L 1046.110176 279067.249213 
L 1046.110176 722.389716 
L 1040.053189 722.389716 
z
" style="fill:#ed4322;"/>
   </g>
   <g id="patch_130">
    <path clip-path="url(#pc657994f8d)" d="M 1046.110176 279067.249213 
L 1052.167164 279067.249213 
L 1052.167164 698.214746 
L 1046.110176 698.214746 
z
" style="fill:#ed4322;"/>
   </g>
   <g id="patch_131">
    <path clip-path="url(#pc657994f8d)" d="M 1052.167164 279067.249213 
L 1058.224152 279067.249213 
L 1058.224152 701.2842 
L 1052.167164 701.2842 
z
" style="fill:#ed4322;"/>
   </g>
   <g id="patch_132">
    <path clip-path="url(#pc657994f8d)" d="M 1058.224152 279067.249213 
L 1064.28114 279067.249213 
L 1064.28114 752.320867 
L 1058.224152 752.320867 
z
" style="fill:#ed4322;"/>
   </g>
   <g id="patch_133">
    <path clip-path="url(#pc657994f8d)" d="M 1064.28114 279067.249213 
L 1070.338128 279067.249213 
L 1070.338128 753.841517 
L 1064.28114 753.841517 
z
" style="fill:#ed4322;"/>
   </g>
   <g id="patch_134">
    <path clip-path="url(#pc657994f8d)" d="M 1070.338128 279067.249213 
L 1076.395115 279067.249213 
L 1076.395115 712.161536 
L 1070.338128 712.161536 
z
" style="fill:#ed4322;"/>
   </g>
   <g id="patch_135">
    <path clip-path="url(#pc657994f8d)" d="M 1076.395115 279067.249213 
L 1082.452103 279067.249213 
L 1082.452103 740.722533 
L 1076.395115 740.722533 
z
" style="fill:#ed4322;"/>
   </g>
   <g id="patch_136">
    <path clip-path="url(#pc657994f8d)" d="M 1082.452103 279067.249213 
L 1088.509091 279067.249213 
L 1088.509091 757.211124 
L 1082.452103 757.211124 
z
" style="fill:#ed4322;"/>
   </g>
   <g id="patch_137">
    <path clip-path="url(#pc657994f8d)" d="M 1088.509091 279067.249213 
L 1094.566079 279067.249213 
L 1094.566079 779.037962 
L 1088.509091 779.037962 
z
" style="fill:#ed4322;"/>
   </g>
   <g id="patch_138">
    <path clip-path="url(#pc657994f8d)" d="M 1094.566079 279067.249213 
L 1100.623066 279067.249213 
L 1100.623066 751.075282 
L 1094.566079 751.075282 
z
" style="fill:#ed4322;"/>
   </g>
   <g id="patch_139">
    <path clip-path="url(#pc657994f8d)" d="M 1100.623066 279067.249213 
L 1106.680054 279067.249213 
L 1106.680054 759.205918 
L 1100.623066 759.205918 
z
" style="fill:#ed4322;"/>
   </g>
   <g id="patch_140">
    <path clip-path="url(#pc657994f8d)" d="M 1106.680054 279067.249213 
L 1112.737042 279067.249213 
L 1112.737042 725.909162 
L 1106.680054 725.909162 
z
" style="fill:#ed4322;"/>
   </g>
   <g id="patch_141">
    <path clip-path="url(#pc657994f8d)" d="M 1112.737042 279067.249213 
L 1118.79403 279067.249213 
L 1118.79403 782.260499 
L 1112.737042 782.260499 
z
" style="fill:#ed4322;"/>
   </g>
   <g id="patch_142">
    <path clip-path="url(#pc657994f8d)" d="M 1118.79403 279067.249213 
L 1124.851018 279067.249213 
L 1124.851018 734.718583 
L 1118.79403 734.718583 
z
" style="fill:#ed4322;"/>
   </g>
   <g id="patch_143">
    <path clip-path="url(#pc657994f8d)" d="M 1124.851018 279067.249213 
L 1130.908005 279067.249213 
L 1130.908005 745.644672 
L 1124.851018 745.644672 
z
" style="fill:#ed4322;"/>
   </g>
   <g id="patch_144">
    <path clip-path="url(#pc657994f8d)" d="M 1130.908005 279067.249213 
L 1136.964993 279067.249213 
L 1136.964993 773.868759 
L 1130.908005 773.868759 
z
" style="fill:#ed4322;"/>
   </g>
   <g id="patch_145">
    <path clip-path="url(#pc657994f8d)" d="M 1136.964993 279067.249213 
L 1143.021981 279067.249213 
L 1143.021981 789.386754 
L 1136.964993 789.386754 
z
" style="fill:#ed4322;"/>
   </g>
   <g id="patch_146">
    <path clip-path="url(#pc657994f8d)" d="M 1143.021981 279067.249213 
L 1149.078969 279067.249213 
L 1149.078969 770.257618 
L 1143.021981 770.257618 
z
" style="fill:#ed4322;"/>
   </g>
   <g id="patch_147">
    <path clip-path="url(#pc657994f8d)" d="M 1149.078969 279067.249213 
L 1155.135957 279067.249213 
L 1155.135957 700.973711 
L 1149.078969 700.973711 
z
" style="fill:#ed4322;"/>
   </g>
   <g id="patch_148">
    <path clip-path="url(#pc657994f8d)" d="M 1155.135957 279067.249213 
L 1161.192944 279067.249213 
L 1161.192944 769.359064 
L 1155.135957 769.359064 
z
" style="fill:#ed4322;"/>
   </g>
   <g id="patch_149">
    <path clip-path="url(#pc657994f8d)" d="M 1161.192944 279067.249213 
L 1167.249932 279067.249213 
L 1167.249932 798.471698 
L 1161.192944 798.471698 
z
" style="fill:#ed4322;"/>
   </g>
   <g id="patch_150">
    <path clip-path="url(#pc657994f8d)" d="M 1167.249932 279067.249213 
L 1173.30692 279067.249213 
L 1173.30692 782.75974 
L 1167.249932 782.75974 
z
" style="fill:#ed4322;"/>
   </g>
   <g id="patch_151">
    <path clip-path="url(#pc657994f8d)" d="M 1173.30692 279067.249213 
L 1179.363908 279067.249213 
L 1179.363908 788.625671 
L 1173.30692 788.625671 
z
" style="fill:#ed4322;"/>
   </g>
   <g id="patch_152">
    <path clip-path="url(#pc657994f8d)" d="M 1179.363908 279067.249213 
L 1185.420896 279067.249213 
L 1185.420896 738.123648 
L 1179.363908 738.123648 
z
" style="fill:#ed4322;"/>
   </g>
   <g id="patch_153">
    <path clip-path="url(#pc657994f8d)" d="M 1185.420896 279067.249213 
L 1191.477883 279067.249213 
L 1191.477883 769.757594 
L 1185.420896 769.757594 
z
" style="fill:#ed4322;"/>
   </g>
   <g id="patch_154">
    <path clip-path="url(#pc657994f8d)" d="M 1191.477883 279067.249213 
L 1197.534871 279067.249213 
L 1197.534871 737.473052 
L 1191.477883 737.473052 
z
" style="fill:#ed4322;"/>
   </g>
   <g id="patch_155">
    <path clip-path="url(#pc657994f8d)" d="M 1197.534871 279067.249213 
L 1203.591859 279067.249213 
L 1203.591859 790.567122 
L 1197.534871 790.567122 
z
" style="fill:#ed4322;"/>
   </g>
   <g id="patch_156">
    <path clip-path="url(#pc657994f8d)" d="M 1203.591859 279067.249213 
L 1209.648847 279067.249213 
L 1209.648847 781.598047 
L 1203.591859 781.598047 
z
" style="fill:#ed4322;"/>
   </g>
   <g id="patch_157">
    <path clip-path="url(#pc657994f8d)" d="M 1209.648847 279067.249213 
L 1215.705834 279067.249213 
L 1215.705834 796.213089 
L 1209.648847 796.213089 
z
" style="fill:#ed4322;"/>
   </g>
   <g id="patch_158">
    <path clip-path="url(#pc657994f8d)" d="M 1215.705834 279067.249213 
L 1221.762822 279067.249213 
L 1221.762822 793.752215 
L 1215.705834 793.752215 
z
" style="fill:#ed4322;"/>
   </g>
   <g id="patch_159">
    <path clip-path="url(#pc657994f8d)" d="M 1221.762822 279067.249213 
L 1227.81981 279067.249213 
L 1227.81981 774.697704 
L 1221.762822 774.697704 
z
" style="fill:#ed4322;"/>
   </g>
   <g id="patch_160">
    <path clip-path="url(#pc657994f8d)" d="M 1227.81981 279067.249213 
L 1233.876798 279067.249213 
L 1233.876798 740.840223 
L 1227.81981 740.840223 
z
" style="fill:#ed4322;"/>
   </g>
   <g id="patch_161">
    <path clip-path="url(#pc657994f8d)" d="M 1233.876798 279067.249213 
L 1239.933786 279067.249213 
L 1239.933786 825.635914 
L 1233.876798 825.635914 
z
" style="fill:#ed4322;"/>
   </g>
   <g id="patch_162">
    <path clip-path="url(#pc657994f8d)" d="M 1239.933786 279067.249213 
L 1245.990773 279067.249213 
L 1245.990773 809.056382 
L 1239.933786 809.056382 
z
" style="fill:#ed4322;"/>
   </g>
   <g id="patch_163">
    <path clip-path="url(#pc657994f8d)" d="M 1245.990773 279067.249213 
L 1252.047761 279067.249213 
L 1252.047761 766.265883 
L 1245.990773 766.265883 
z
" style="fill:#ed4322;"/>
   </g>
   <g id="patch_164">
    <path clip-path="url(#pc657994f8d)" d="M 1252.047761 279067.249213 
L 1258.104749 279067.249213 
L 1258.104749 787.464085 
L 1252.047761 787.464085 
z
" style="fill:#ed4322;"/>
   </g>
   <g id="patch_165">
    <path clip-path="url(#pc657994f8d)" d="M 1258.104749 279067.249213 
L 1264.161737 279067.249213 
L 1264.161737 784.6082 
L 1258.104749 784.6082 
z
" style="fill:#ed4322;"/>
   </g>
   <g id="patch_166">
    <path clip-path="url(#pc657994f8d)" d="M 1264.161737 279067.249213 
L 1270.218725 279067.249213 
L 1270.218725 749.631157 
L 1264.161737 749.631157 
z
" style="fill:#ed4322;"/>
   </g>
   <g id="patch_167">
    <path clip-path="url(#pc657994f8d)" d="M 1270.218725 279067.249213 
L 1276.275712 279067.249213 
L 1276.275712 821.886021 
L 1270.218725 821.886021 
z
" style="fill:#ed4322;"/>
   </g>
   <g id="patch_168">
    <path clip-path="url(#pc657994f8d)" d="M 1276.275712 279067.249213 
L 1282.3327 279067.249213 
L 1282.3327 781.598047 
L 1276.275712 781.598047 
z
" style="fill:#ed4322;"/>
   </g>
   <g id="patch_169">
    <path clip-path="url(#pc657994f8d)" d="M 1282.3327 279067.249213 
L 1288.389688 279067.249213 
L 1288.389688 826.352203 
L 1282.3327 826.352203 
z
" style="fill:#ed4322;"/>
   </g>
   <g id="patch_170">
    <path clip-path="url(#pc657994f8d)" d="M 1288.389688 279067.249213 
L 1294.446676 279067.249213 
L 1294.446676 756.003203 
L 1288.389688 756.003203 
z
" style="fill:#ed4322;"/>
   </g>
   <g id="patch_171">
    <path clip-path="url(#pc657994f8d)" d="M 1294.446676 279067.249213 
L 1300.503664 279067.249213 
L 1300.503664 759.663925 
L 1294.446676 759.663925 
z
" style="fill:#ed4322;"/>
   </g>
   <g id="patch_172">
    <path clip-path="url(#pc657994f8d)" d="M 1300.503664 279067.249213 
L 1306.560651 279067.249213 
L 1306.560651 765.927049 
L 1300.503664 765.927049 
z
" style="fill:#ed4322;"/>
   </g>
   <g id="patch_173">
    <path clip-path="url(#pc657994f8d)" d="M 1306.560651 279067.249213 
L 1312.617639 279067.249213 
L 1312.617639 794.546498 
L 1306.560651 794.546498 
z
" style="fill:#ed4322;"/>
   </g>
   <g id="patch_174">
    <path clip-path="url(#pc657994f8d)" d="M 1312.617639 279067.249213 
L 1318.674627 279067.249213 
L 1318.674627 786.428149 
L 1312.617639 786.428149 
z
" style="fill:#ed4322;"/>
   </g>
   <g id="patch_175">
    <path clip-path="url(#pc657994f8d)" d="M 1318.674627 279067.249213 
L 1324.731615 279067.249213 
L 1324.731615 820.813936 
L 1318.674627 820.813936 
z
" style="fill:#ed4322;"/>
   </g>
   <g id="patch_176">
    <path clip-path="url(#pc657994f8d)" d="M 1324.731615 279067.249213 
L 1330.788602 279067.249213 
L 1330.788602 755.825277 
L 1324.731615 755.825277 
z
" style="fill:#ed4322;"/>
   </g>
   <g id="patch_177">
    <path clip-path="url(#pc657994f8d)" d="M 1330.788602 279067.249213 
L 1336.84559 279067.249213 
L 1336.84559 820.433349 
L 1330.788602 820.433349 
z
" style="fill:#ed4322;"/>
   </g>
   <g id="patch_178">
    <path clip-path="url(#pc657994f8d)" d="M 1336.84559 279067.249213 
L 1342.902578 279067.249213 
L 1342.902578 798.852284 
L 1336.84559 798.852284 
z
" style="fill:#ed4322;"/>
   </g>
   <g id="patch_179">
    <path clip-path="url(#pc657994f8d)" d="M 1342.902578 279067.249213 
L 1348.959566 279067.249213 
L 1348.959566 799.170361 
L 1342.902578 799.170361 
z
" style="fill:#ed4322;"/>
   </g>
   <g id="patch_180">
    <path clip-path="url(#pc657994f8d)" d="M 1348.959566 279067.249213 
L 1355.016554 279067.249213 
L 1355.016554 821.578736 
L 1348.959566 821.578736 
z
" style="fill:#ed4322;"/>
   </g>
   <g id="patch_181">
    <path clip-path="url(#pc657994f8d)" d="M 1355.016554 279067.249213 
L 1361.073541 279067.249213 
L 1361.073541 834.696996 
L 1355.016554 834.696996 
z
" style="fill:#ed4322;"/>
   </g>
   <g id="patch_182">
    <path clip-path="url(#pc657994f8d)" d="M 1361.073541 279067.249213 
L 1367.130529 279067.249213 
L 1367.130529 764.10411 
L 1361.073541 764.10411 
z
" style="fill:#ed4322;"/>
   </g>
   <g id="patch_183">
    <path clip-path="url(#pc657994f8d)" d="M 1367.130529 279067.249213 
L 1373.187517 279067.249213 
L 1373.187517 765.060112 
L 1367.130529 765.060112 
z
" style="fill:#ed4322;"/>
   </g>
   <g id="patch_184">
    <path clip-path="url(#pc657994f8d)" d="M 1373.187517 279067.249213 
L 1379.244505 279067.249213 
L 1379.244505 745.808168 
L 1373.187517 745.808168 
z
" style="fill:#ed4322;"/>
   </g>
   <g id="patch_185">
    <path clip-path="url(#pc657994f8d)" d="M 1379.244505 279067.249213 
L 1385.301493 279067.249213 
L 1385.301493 814.140843 
L 1379.244505 814.140843 
z
" style="fill:#ed4322;"/>
   </g>
   <g id="patch_186">
    <path clip-path="url(#pc657994f8d)" d="M 1385.301493 279067.249213 
L 1391.35848 279067.249213 
L 1391.35848 825.160744 
L 1385.301493 825.160744 
z
" style="fill:#ed4322;"/>
   </g>
   <g id="patch_187">
    <path clip-path="url(#pc657994f8d)" d="M 1391.35848 279067.249213 
L 1397.415468 279067.249213 
L 1397.415468 833.251342 
L 1391.35848 833.251342 
z
" style="fill:#ed4322;"/>
   </g>
   <g id="patch_188">
    <path clip-path="url(#pc657994f8d)" d="M 1397.415468 279067.249213 
L 1403.472456 279067.249213 
L 1403.472456 822.502952 
L 1397.415468 822.502952 
z
" style="fill:#ed4322;"/>
   </g>
   <g id="patch_189">
    <path clip-path="url(#pc657994f8d)" d="M 1403.472456 279067.249213 
L 1409.529444 279067.249213 
L 1409.529444 828.852543 
L 1403.472456 828.852543 
z
" style="fill:#ed4322;"/>
   </g>
   <g id="patch_190">
    <path clip-path="url(#pc657994f8d)" d="M 1409.529444 279067.249213 
L 1415.586431 279067.249213 
L 1415.586431 823.824518 
L 1409.529444 823.824518 
z
" style="fill:#ed4322;"/>
   </g>
   <g id="patch_191">
    <path clip-path="url(#pc657994f8d)" d="M 1415.586431 279067.249213 
L 1421.643419 279067.249213 
L 1421.643419 842.471022 
L 1415.586431 842.471022 
z
" style="fill:#ed4322;"/>
   </g>
   <g id="patch_192">
    <path clip-path="url(#pc657994f8d)" d="M 1421.643419 279067.249213 
L 1427.700407 279067.249213 
L 1427.700407 809.610839 
L 1421.643419 809.610839 
z
" style="fill:#ed4322;"/>
   </g>
   <g id="patch_193">
    <path clip-path="url(#pc657994f8d)" d="M 1427.700407 279067.249213 
L 1433.757395 279067.249213 
L 1433.757395 815.08219 
L 1427.700407 815.08219 
z
" style="fill:#ed4322;"/>
   </g>
   <g id="patch_194">
    <path clip-path="url(#pc657994f8d)" d="M 1433.757395 279067.249213 
L 1439.814383 279067.249213 
L 1439.814383 758.023187 
L 1433.757395 758.023187 
z
" style="fill:#ed4322;"/>
   </g>
   <g id="patch_195">
    <path clip-path="url(#pc657994f8d)" d="M 1439.814383 279067.249213 
L 1445.87137 279067.249213 
L 1445.87137 768.763731 
L 1439.814383 768.763731 
z
" style="fill:#ed4322;"/>
   </g>
   <g id="patch_196">
    <path clip-path="url(#pc657994f8d)" d="M 1445.87137 279067.249213 
L 1451.928358 279067.249213 
L 1451.928358 763.250148 
L 1445.87137 763.250148 
z
" style="fill:#ed4322;"/>
   </g>
   <g id="patch_197">
    <path clip-path="url(#pc657994f8d)" d="M 1451.928358 279067.249213 
L 1457.985346 279067.249213 
L 1457.985346 847.407273 
L 1451.928358 847.407273 
z
" style="fill:#ed4322;"/>
   </g>
   <g id="patch_198">
    <path clip-path="url(#pc657994f8d)" d="M 1457.985346 279067.249213 
L 1464.042334 279067.249213 
L 1464.042334 818.398705 
L 1457.985346 818.398705 
z
" style="fill:#ed4322;"/>
   </g>
   <g id="patch_199">
    <path clip-path="url(#pc657994f8d)" d="M 1464.042334 279067.249213 
L 1470.099322 279067.249213 
L 1470.099322 791.161672 
L 1464.042334 791.161672 
z
" style="fill:#ed4322;"/>
   </g>
   <g id="patch_200">
    <path clip-path="url(#pc657994f8d)" d="M 1470.099322 279067.249213 
L 1476.156309 279067.249213 
L 1476.156309 767.385956 
L 1470.099322 767.385956 
z
" style="fill:#ed4322;"/>
   </g>
   <g id="patch_201">
    <path clip-path="url(#pc657994f8d)" d="M 1476.156309 279067.249213 
L 1482.213297 279067.249213 
L 1482.213297 825.398095 
L 1476.156309 825.398095 
z
" style="fill:#ed4322;"/>
   </g>
   <g id="patch_202">
    <path clip-path="url(#pc657994f8d)" d="M 1482.213297 279067.249213 
L 1488.270285 279067.249213 
L 1488.270285 765.396513 
L 1482.213297 765.396513 
z
" style="fill:#ed4322;"/>
   </g>
   <g id="patch_203">
    <path clip-path="url(#pc657994f8d)" d="M 1488.270285 279067.249213 
L 1494.327273 279067.249213 
L 1494.327273 796.02677 
L 1488.270285 796.02677 
z
" style="fill:#ed4322;"/>
   </g>
   <g id="matplotlib.axis_1">
    <g id="xtick_1">
     <g id="line2d_1">
      <path clip-path="url(#pc657994f8d)" d="M 279.901221 882 
L 279.901221 120.96 
" style="fill:none;stroke:#b0b0b0;stroke-linecap:square;stroke-width:0.8;"/>
     </g>
     <g id="line2d_2">
      <defs>
       <path d="M 0 0 
L 0 3.5 
" id="m41c6b3a483" style="stroke:#000000;stroke-width:0.8;"/>
      </defs>
      <g>
       <use style="stroke:#000000;stroke-width:0.8;" x="279.901221" xlink:href="#m41c6b3a483" y="882"/>
      </g>
     </g>
     <g id="text_1">
      <!-- 0 -->
      <defs>
       <path d="M 31.78125 66.40625 
Q 24.171875 66.40625 20.328125 58.90625 
Q 16.5 51.421875 16.5 36.375 
Q 16.5 21.390625 20.328125 13.890625 
Q 24.171875 6.390625 31.78125 6.390625 
Q 39.453125 6.390625 43.28125 13.890625 
Q 47.125 21.390625 47.125 36.375 
Q 47.125 51.421875 43.28125 58.90625 
Q 39.453125 66.40625 31.78125 66.40625 
z
M 31.78125 74.21875 
Q 44.046875 74.21875 50.515625 64.515625 
Q 56.984375 54.828125 56.984375 36.375 
Q 56.984375 17.96875 50.515625 8.265625 
Q 44.046875 -1.421875 31.78125 -1.421875 
Q 19.53125 -1.421875 13.0625 8.265625 
Q 6.59375 17.96875 6.59375 36.375 
Q 6.59375 54.828125 13.0625 64.515625 
Q 19.53125 74.21875 31.78125 74.21875 
z
" id="DejaVuSans-30"/>
      </defs>
      <g transform="translate(271.948096 907.996094)scale(0.25 -0.25)">
       <use xlink:href="#DejaVuSans-30"/>
      </g>
     </g>
    </g>
    <g id="xtick_2">
     <g id="line2d_3">
      <path clip-path="url(#pc657994f8d)" d="M 431.325916 882 
L 431.325916 120.96 
" style="fill:none;stroke:#b0b0b0;stroke-linecap:square;stroke-width:0.8;"/>
     </g>
     <g id="line2d_4">
      <g>
       <use style="stroke:#000000;stroke-width:0.8;" x="431.325916" xlink:href="#m41c6b3a483" y="882"/>
      </g>
     </g>
     <g id="text_2">
      <!-- 25 -->
      <defs>
       <path d="M 19.1875 8.296875 
L 53.609375 8.296875 
L 53.609375 0 
L 7.328125 0 
L 7.328125 8.296875 
Q 12.9375 14.109375 22.625 23.890625 
Q 32.328125 33.6875 34.8125 36.53125 
Q 39.546875 41.84375 41.421875 45.53125 
Q 43.3125 49.21875 43.3125 52.78125 
Q 43.3125 58.59375 39.234375 62.25 
Q 35.15625 65.921875 28.609375 65.921875 
Q 23.96875 65.921875 18.8125 64.3125 
Q 13.671875 62.703125 7.8125 59.421875 
L 7.8125 69.390625 
Q 13.765625 71.78125 18.9375 73 
Q 24.125 74.21875 28.421875 74.21875 
Q 39.75 74.21875 46.484375 68.546875 
Q 53.21875 62.890625 53.21875 53.421875 
Q 53.21875 48.921875 51.53125 44.890625 
Q 49.859375 40.875 45.40625 35.40625 
Q 44.1875 33.984375 37.640625 27.21875 
Q 31.109375 20.453125 19.1875 8.296875 
z
" id="DejaVuSans-32"/>
       <path d="M 10.796875 72.90625 
L 49.515625 72.90625 
L 49.515625 64.59375 
L 19.828125 64.59375 
L 19.828125 46.734375 
Q 21.96875 47.46875 24.109375 47.828125 
Q 26.265625 48.1875 28.421875 48.1875 
Q 40.625 48.1875 47.75 41.5 
Q 54.890625 34.8125 54.890625 23.390625 
Q 54.890625 11.625 47.5625 5.09375 
Q 40.234375 -1.421875 26.90625 -1.421875 
Q 22.3125 -1.421875 17.546875 -0.640625 
Q 12.796875 0.140625 7.71875 1.703125 
L 7.71875 11.625 
Q 12.109375 9.234375 16.796875 8.0625 
Q 21.484375 6.890625 26.703125 6.890625 
Q 35.15625 6.890625 40.078125 11.328125 
Q 45.015625 15.765625 45.015625 23.390625 
Q 45.015625 31 40.078125 35.4375 
Q 35.15625 39.890625 26.703125 39.890625 
Q 22.75 39.890625 18.8125 39.015625 
Q 14.890625 38.140625 10.796875 36.28125 
z
" id="DejaVuSans-35"/>
      </defs>
      <g transform="translate(415.419666 907.996094)scale(0.25 -0.25)">
       <use xlink:href="#DejaVuSans-32"/>
       <use x="63.623047" xlink:href="#DejaVuSans-35"/>
      </g>
     </g>
    </g>
    <g id="xtick_3">
     <g id="line2d_5">
      <path clip-path="url(#pc657994f8d)" d="M 582.750611 882 
L 582.750611 120.96 
" style="fill:none;stroke:#b0b0b0;stroke-linecap:square;stroke-width:0.8;"/>
     </g>
     <g id="line2d_6">
      <g>
       <use style="stroke:#000000;stroke-width:0.8;" x="582.750611" xlink:href="#m41c6b3a483" y="882"/>
      </g>
     </g>
     <g id="text_3">
      <!-- 50 -->
      <g transform="translate(566.844361 907.996094)scale(0.25 -0.25)">
       <use xlink:href="#DejaVuSans-35"/>
       <use x="63.623047" xlink:href="#DejaVuSans-30"/>
      </g>
     </g>
    </g>
    <g id="xtick_4">
     <g id="line2d_7">
      <path clip-path="url(#pc657994f8d)" d="M 734.175305 882 
L 734.175305 120.96 
" style="fill:none;stroke:#b0b0b0;stroke-linecap:square;stroke-width:0.8;"/>
     </g>
     <g id="line2d_8">
      <g>
       <use style="stroke:#000000;stroke-width:0.8;" x="734.175305" xlink:href="#m41c6b3a483" y="882"/>
      </g>
     </g>
     <g id="text_4">
      <!-- 75 -->
      <defs>
       <path d="M 8.203125 72.90625 
L 55.078125 72.90625 
L 55.078125 68.703125 
L 28.609375 0 
L 18.3125 0 
L 43.21875 64.59375 
L 8.203125 64.59375 
z
" id="DejaVuSans-37"/>
      </defs>
      <g transform="translate(718.269055 907.996094)scale(0.25 -0.25)">
       <use xlink:href="#DejaVuSans-37"/>
       <use x="63.623047" xlink:href="#DejaVuSans-35"/>
      </g>
     </g>
    </g>
    <g id="xtick_5">
     <g id="line2d_9">
      <path clip-path="url(#pc657994f8d)" d="M 885.6 882 
L 885.6 120.96 
" style="fill:none;stroke:#b0b0b0;stroke-linecap:square;stroke-width:0.8;"/>
     </g>
     <g id="line2d_10">
      <g>
       <use style="stroke:#000000;stroke-width:0.8;" x="885.6" xlink:href="#m41c6b3a483" y="882"/>
      </g>
     </g>
     <g id="text_5">
      <!-- 100 -->
      <defs>
       <path d="M 12.40625 8.296875 
L 28.515625 8.296875 
L 28.515625 63.921875 
L 10.984375 60.40625 
L 10.984375 69.390625 
L 28.421875 72.90625 
L 38.28125 72.90625 
L 38.28125 8.296875 
L 54.390625 8.296875 
L 54.390625 0 
L 12.40625 0 
z
" id="DejaVuSans-31"/>
      </defs>
      <g transform="translate(861.740625 907.996094)scale(0.25 -0.25)">
       <use xlink:href="#DejaVuSans-31"/>
       <use x="63.623047" xlink:href="#DejaVuSans-30"/>
       <use x="127.246094" xlink:href="#DejaVuSans-30"/>
      </g>
     </g>
    </g>
    <g id="xtick_6">
     <g id="line2d_11">
      <path clip-path="url(#pc657994f8d)" d="M 1037.024695 882 
L 1037.024695 120.96 
" style="fill:none;stroke:#b0b0b0;stroke-linecap:square;stroke-width:0.8;"/>
     </g>
     <g id="line2d_12">
      <g>
       <use style="stroke:#000000;stroke-width:0.8;" x="1037.024695" xlink:href="#m41c6b3a483" y="882"/>
      </g>
     </g>
     <g id="text_6">
      <!-- 125 -->
      <g transform="translate(1013.16532 907.996094)scale(0.25 -0.25)">
       <use xlink:href="#DejaVuSans-31"/>
       <use x="63.623047" xlink:href="#DejaVuSans-32"/>
       <use x="127.246094" xlink:href="#DejaVuSans-35"/>
      </g>
     </g>
    </g>
    <g id="xtick_7">
     <g id="line2d_13">
      <path clip-path="url(#pc657994f8d)" d="M 1188.449389 882 
L 1188.449389 120.96 
" style="fill:none;stroke:#b0b0b0;stroke-linecap:square;stroke-width:0.8;"/>
     </g>
     <g id="line2d_14">
      <g>
       <use style="stroke:#000000;stroke-width:0.8;" x="1188.449389" xlink:href="#m41c6b3a483" y="882"/>
      </g>
     </g>
     <g id="text_7">
      <!-- 150 -->
      <g transform="translate(1164.590014 907.996094)scale(0.25 -0.25)">
       <use xlink:href="#DejaVuSans-31"/>
       <use x="63.623047" xlink:href="#DejaVuSans-35"/>
       <use x="127.246094" xlink:href="#DejaVuSans-30"/>
      </g>
     </g>
    </g>
    <g id="xtick_8">
     <g id="line2d_15">
      <path clip-path="url(#pc657994f8d)" d="M 1339.874084 882 
L 1339.874084 120.96 
" style="fill:none;stroke:#b0b0b0;stroke-linecap:square;stroke-width:0.8;"/>
     </g>
     <g id="line2d_16">
      <g>
       <use style="stroke:#000000;stroke-width:0.8;" x="1339.874084" xlink:href="#m41c6b3a483" y="882"/>
      </g>
     </g>
     <g id="text_8">
      <!-- 175 -->
      <g transform="translate(1316.014709 907.996094)scale(0.25 -0.25)">
       <use xlink:href="#DejaVuSans-31"/>
       <use x="63.623047" xlink:href="#DejaVuSans-37"/>
       <use x="127.246094" xlink:href="#DejaVuSans-35"/>
      </g>
     </g>
    </g>
    <g id="xtick_9">
     <g id="line2d_17">
      <path clip-path="url(#pc657994f8d)" d="M 1491.298779 882 
L 1491.298779 120.96 
" style="fill:none;stroke:#b0b0b0;stroke-linecap:square;stroke-width:0.8;"/>
     </g>
     <g id="line2d_18">
      <g>
       <use style="stroke:#000000;stroke-width:0.8;" x="1491.298779" xlink:href="#m41c6b3a483" y="882"/>
      </g>
     </g>
     <g id="text_9">
      <!-- 200 -->
      <g transform="translate(1467.439404 907.996094)scale(0.25 -0.25)">
       <use xlink:href="#DejaVuSans-32"/>
       <use x="63.623047" xlink:href="#DejaVuSans-30"/>
       <use x="127.246094" xlink:href="#DejaVuSans-30"/>
      </g>
     </g>
    </g>
    <g id="text_10">
     <!-- Number -->
     <defs>
      <path d="M 9.8125 72.90625 
L 23.09375 72.90625 
L 55.421875 11.921875 
L 55.421875 72.90625 
L 64.984375 72.90625 
L 64.984375 0 
L 51.703125 0 
L 19.390625 60.984375 
L 19.390625 0 
L 9.8125 0 
z
" id="DejaVuSans-4e"/>
      <path d="M 8.5 21.578125 
L 8.5 54.6875 
L 17.484375 54.6875 
L 17.484375 21.921875 
Q 17.484375 14.15625 20.5 10.265625 
Q 23.53125 6.390625 29.59375 6.390625 
Q 36.859375 6.390625 41.078125 11.03125 
Q 45.3125 15.671875 45.3125 23.6875 
L 45.3125 54.6875 
L 54.296875 54.6875 
L 54.296875 0 
L 45.3125 0 
L 45.3125 8.40625 
Q 42.046875 3.421875 37.71875 1 
Q 33.40625 -1.421875 27.6875 -1.421875 
Q 18.265625 -1.421875 13.375 4.4375 
Q 8.5 10.296875 8.5 21.578125 
z
M 31.109375 56 
z
" id="DejaVuSans-75"/>
      <path d="M 52 44.1875 
Q 55.375 50.25 60.0625 53.125 
Q 64.75 56 71.09375 56 
Q 79.640625 56 84.28125 50.015625 
Q 88.921875 44.046875 88.921875 33.015625 
L 88.921875 0 
L 79.890625 0 
L 79.890625 32.71875 
Q 79.890625 40.578125 77.09375 44.375 
Q 74.3125 48.1875 68.609375 48.1875 
Q 61.625 48.1875 57.5625 43.546875 
Q 53.515625 38.921875 53.515625 30.90625 
L 53.515625 0 
L 44.484375 0 
L 44.484375 32.71875 
Q 44.484375 40.625 41.703125 44.40625 
Q 38.921875 48.1875 33.109375 48.1875 
Q 26.21875 48.1875 22.15625 43.53125 
Q 18.109375 38.875 18.109375 30.90625 
L 18.109375 0 
L 9.078125 0 
L 9.078125 54.6875 
L 18.109375 54.6875 
L 18.109375 46.1875 
Q 21.1875 51.21875 25.484375 53.609375 
Q 29.78125 56 35.6875 56 
Q 41.65625 56 45.828125 52.96875 
Q 50 49.953125 52 44.1875 
z
" id="DejaVuSans-6d"/>
      <path d="M 48.6875 27.296875 
Q 48.6875 37.203125 44.609375 42.84375 
Q 40.53125 48.484375 33.40625 48.484375 
Q 26.265625 48.484375 22.1875 42.84375 
Q 18.109375 37.203125 18.109375 27.296875 
Q 18.109375 17.390625 22.1875 11.75 
Q 26.265625 6.109375 33.40625 6.109375 
Q 40.53125 6.109375 44.609375 11.75 
Q 48.6875 17.390625 48.6875 27.296875 
z
M 18.109375 46.390625 
Q 20.953125 51.265625 25.265625 53.625 
Q 29.59375 56 35.59375 56 
Q 45.5625 56 51.78125 48.09375 
Q 58.015625 40.1875 58.015625 27.296875 
Q 58.015625 14.40625 51.78125 6.484375 
Q 45.5625 -1.421875 35.59375 -1.421875 
Q 29.59375 -1.421875 25.265625 0.953125 
Q 20.953125 3.328125 18.109375 8.203125 
L 18.109375 0 
L 9.078125 0 
L 9.078125 75.984375 
L 18.109375 75.984375 
z
" id="DejaVuSans-62"/>
      <path d="M 56.203125 29.59375 
L 56.203125 25.203125 
L 14.890625 25.203125 
Q 15.484375 15.921875 20.484375 11.0625 
Q 25.484375 6.203125 34.421875 6.203125 
Q 39.59375 6.203125 44.453125 7.46875 
Q 49.3125 8.734375 54.109375 11.28125 
L 54.109375 2.78125 
Q 49.265625 0.734375 44.1875 -0.34375 
Q 39.109375 -1.421875 33.890625 -1.421875 
Q 20.796875 -1.421875 13.15625 6.1875 
Q 5.515625 13.8125 5.515625 26.8125 
Q 5.515625 40.234375 12.765625 48.109375 
Q 20.015625 56 32.328125 56 
Q 43.359375 56 49.78125 48.890625 
Q 56.203125 41.796875 56.203125 29.59375 
z
M 47.21875 32.234375 
Q 47.125 39.59375 43.09375 43.984375 
Q 39.0625 48.390625 32.421875 48.390625 
Q 24.90625 48.390625 20.390625 44.140625 
Q 15.875 39.890625 15.1875 32.171875 
z
" id="DejaVuSans-65"/>
      <path d="M 41.109375 46.296875 
Q 39.59375 47.171875 37.8125 47.578125 
Q 36.03125 48 33.890625 48 
Q 26.265625 48 22.1875 43.046875 
Q 18.109375 38.09375 18.109375 28.8125 
L 18.109375 0 
L 9.078125 0 
L 9.078125 54.6875 
L 18.109375 54.6875 
L 18.109375 46.1875 
Q 20.953125 51.171875 25.484375 53.578125 
Q 30.03125 56 36.53125 56 
Q 37.453125 56 38.578125 55.875 
Q 39.703125 55.765625 41.0625 55.515625 
z
" id="DejaVuSans-72"/>
     </defs>
     <g transform="translate(819.316406 942.270156)scale(0.33 -0.33)">
      <use xlink:href="#DejaVuSans-4e"/>
      <use x="74.804688" xlink:href="#DejaVuSans-75"/>
      <use x="138.183594" xlink:href="#DejaVuSans-6d"/>
      <use x="235.595703" xlink:href="#DejaVuSans-62"/>
      <use x="299.072266" xlink:href="#DejaVuSans-65"/>
      <use x="360.595703" xlink:href="#DejaVuSans-72"/>
     </g>
    </g>
   </g>
   <g id="matplotlib.axis_2">
    <g id="ytick_1">
     <g id="line2d_19">
      <path clip-path="url(#pc657994f8d)" d="M 216 875.913318 
L 1555.2 875.913318 
" style="fill:none;stroke:#b0b0b0;stroke-linecap:square;stroke-width:0.8;"/>
     </g>
     <g id="line2d_20">
      <defs>
       <path d="M 0 0 
L -3.5 0 
" id="md7fb19c4e6" style="stroke:#000000;stroke-width:0.8;"/>
      </defs>
      <g>
       <use style="stroke:#000000;stroke-width:0.8;" x="216" xlink:href="#md7fb19c4e6" y="875.913318"/>
      </g>
     </g>
     <g id="text_11">
      <!-- $\mathdefault{10^{3}}$ -->
      <defs>
       <path d="M 40.578125 39.3125 
Q 47.65625 37.796875 51.625 33 
Q 55.609375 28.21875 55.609375 21.1875 
Q 55.609375 10.40625 48.1875 4.484375 
Q 40.765625 -1.421875 27.09375 -1.421875 
Q 22.515625 -1.421875 17.65625 -0.515625 
Q 12.796875 0.390625 7.625 2.203125 
L 7.625 11.71875 
Q 11.71875 9.328125 16.59375 8.109375 
Q 21.484375 6.890625 26.8125 6.890625 
Q 36.078125 6.890625 40.9375 10.546875 
Q 45.796875 14.203125 45.796875 21.1875 
Q 45.796875 27.640625 41.28125 31.265625 
Q 36.765625 34.90625 28.71875 34.90625 
L 20.21875 34.90625 
L 20.21875 43.015625 
L 29.109375 43.015625 
Q 36.375 43.015625 40.234375 45.921875 
Q 44.09375 48.828125 44.09375 54.296875 
Q 44.09375 59.90625 40.109375 62.90625 
Q 36.140625 65.921875 28.71875 65.921875 
Q 24.65625 65.921875 20.015625 65.03125 
Q 15.375 64.15625 9.8125 62.3125 
L 9.8125 71.09375 
Q 15.4375 72.65625 20.34375 73.4375 
Q 25.25 74.21875 29.59375 74.21875 
Q 40.828125 74.21875 47.359375 69.109375 
Q 53.90625 64.015625 53.90625 55.328125 
Q 53.90625 49.265625 50.4375 45.09375 
Q 46.96875 40.921875 40.578125 39.3125 
z
" id="DejaVuSans-33"/>
      </defs>
      <g transform="translate(165 885.411365)scale(0.25 -0.25)">
       <use transform="translate(0 0.765625)" xlink:href="#DejaVuSans-31"/>
       <use transform="translate(63.623047 0.765625)" xlink:href="#DejaVuSans-30"/>
       <use transform="translate(128.203125 39.046875)scale(0.7)" xlink:href="#DejaVuSans-33"/>
      </g>
     </g>
    </g>
    <g id="ytick_2">
     <g id="line2d_21">
      <path clip-path="url(#pc657994f8d)" d="M 216 598.55406 
L 1555.2 598.55406 
" style="fill:none;stroke:#b0b0b0;stroke-linecap:square;stroke-width:0.8;"/>
     </g>
     <g id="line2d_22">
      <g>
       <use style="stroke:#000000;stroke-width:0.8;" x="216" xlink:href="#md7fb19c4e6" y="598.55406"/>
      </g>
     </g>
     <g id="text_12">
      <!-- $\mathdefault{10^{4}}$ -->
      <defs>
       <path d="M 37.796875 64.3125 
L 12.890625 25.390625 
L 37.796875 25.390625 
z
M 35.203125 72.90625 
L 47.609375 72.90625 
L 47.609375 25.390625 
L 58.015625 25.390625 
L 58.015625 17.1875 
L 47.609375 17.1875 
L 47.609375 0 
L 37.796875 0 
L 37.796875 17.1875 
L 4.890625 17.1875 
L 4.890625 26.703125 
z
" id="DejaVuSans-34"/>
      </defs>
      <g transform="translate(165 608.052107)scale(0.25 -0.25)">
       <use transform="translate(0 0.684375)" xlink:href="#DejaVuSans-31"/>
       <use transform="translate(63.623047 0.684375)" xlink:href="#DejaVuSans-30"/>
       <use transform="translate(128.203125 38.965625)scale(0.7)" xlink:href="#DejaVuSans-34"/>
      </g>
     </g>
    </g>
    <g id="ytick_3">
     <g id="line2d_23">
      <path clip-path="url(#pc657994f8d)" d="M 216 321.194802 
L 1555.2 321.194802 
" style="fill:none;stroke:#b0b0b0;stroke-linecap:square;stroke-width:0.8;"/>
     </g>
     <g id="line2d_24">
      <g>
       <use style="stroke:#000000;stroke-width:0.8;" x="216" xlink:href="#md7fb19c4e6" y="321.194802"/>
      </g>
     </g>
     <g id="text_13">
      <!-- $\mathdefault{10^{5}}$ -->
      <g transform="translate(165 330.692849)scale(0.25 -0.25)">
       <use transform="translate(0 0.684375)" xlink:href="#DejaVuSans-31"/>
       <use transform="translate(63.623047 0.684375)" xlink:href="#DejaVuSans-30"/>
       <use transform="translate(128.203125 38.965625)scale(0.7)" xlink:href="#DejaVuSans-35"/>
      </g>
     </g>
    </g>
    <g id="ytick_4">
     <g id="line2d_25">
      <defs>
       <path d="M 0 0 
L -2 0 
" id="mafa285c237" style="stroke:#000000;stroke-width:0.6;"/>
      </defs>
      <g>
       <use style="stroke:#000000;stroke-width:0.6;" x="216" xlink:href="#mafa285c237" y="792.419862"/>
      </g>
     </g>
    </g>
    <g id="ytick_5">
     <g id="line2d_26">
      <g>
       <use style="stroke:#000000;stroke-width:0.6;" x="216" xlink:href="#mafa285c237" y="743.579321"/>
      </g>
     </g>
    </g>
    <g id="ytick_6">
     <g id="line2d_27">
      <g>
       <use style="stroke:#000000;stroke-width:0.6;" x="216" xlink:href="#mafa285c237" y="708.926406"/>
      </g>
     </g>
    </g>
    <g id="ytick_7">
     <g id="line2d_28">
      <g>
       <use style="stroke:#000000;stroke-width:0.6;" x="216" xlink:href="#mafa285c237" y="682.047517"/>
      </g>
     </g>
    </g>
    <g id="ytick_8">
     <g id="line2d_29">
      <g>
       <use style="stroke:#000000;stroke-width:0.6;" x="216" xlink:href="#mafa285c237" y="660.085865"/>
      </g>
     </g>
    </g>
    <g id="ytick_9">
     <g id="line2d_30">
      <g>
       <use style="stroke:#000000;stroke-width:0.6;" x="216" xlink:href="#mafa285c237" y="641.517553"/>
      </g>
     </g>
    </g>
    <g id="ytick_10">
     <g id="line2d_31">
      <g>
       <use style="stroke:#000000;stroke-width:0.6;" x="216" xlink:href="#mafa285c237" y="625.43295"/>
      </g>
     </g>
    </g>
    <g id="ytick_11">
     <g id="line2d_32">
      <g>
       <use style="stroke:#000000;stroke-width:0.6;" x="216" xlink:href="#mafa285c237" y="611.245324"/>
      </g>
     </g>
    </g>
    <g id="ytick_12">
     <g id="line2d_33">
      <g>
       <use style="stroke:#000000;stroke-width:0.6;" x="216" xlink:href="#mafa285c237" y="515.060604"/>
      </g>
     </g>
    </g>
    <g id="ytick_13">
     <g id="line2d_34">
      <g>
       <use style="stroke:#000000;stroke-width:0.6;" x="216" xlink:href="#mafa285c237" y="466.220063"/>
      </g>
     </g>
    </g>
    <g id="ytick_14">
     <g id="line2d_35">
      <g>
       <use style="stroke:#000000;stroke-width:0.6;" x="216" xlink:href="#mafa285c237" y="431.567148"/>
      </g>
     </g>
    </g>
    <g id="ytick_15">
     <g id="line2d_36">
      <g>
       <use style="stroke:#000000;stroke-width:0.6;" x="216" xlink:href="#mafa285c237" y="404.688258"/>
      </g>
     </g>
    </g>
    <g id="ytick_16">
     <g id="line2d_37">
      <g>
       <use style="stroke:#000000;stroke-width:0.6;" x="216" xlink:href="#mafa285c237" y="382.726607"/>
      </g>
     </g>
    </g>
    <g id="ytick_17">
     <g id="line2d_38">
      <g>
       <use style="stroke:#000000;stroke-width:0.6;" x="216" xlink:href="#mafa285c237" y="364.158295"/>
      </g>
     </g>
    </g>
    <g id="ytick_18">
     <g id="line2d_39">
      <g>
       <use style="stroke:#000000;stroke-width:0.6;" x="216" xlink:href="#mafa285c237" y="348.073691"/>
      </g>
     </g>
    </g>
    <g id="ytick_19">
     <g id="line2d_40">
      <g>
       <use style="stroke:#000000;stroke-width:0.6;" x="216" xlink:href="#mafa285c237" y="333.886066"/>
      </g>
     </g>
    </g>
    <g id="ytick_20">
     <g id="line2d_41">
      <g>
       <use style="stroke:#000000;stroke-width:0.6;" x="216" xlink:href="#mafa285c237" y="237.701346"/>
      </g>
     </g>
    </g>
    <g id="ytick_21">
     <g id="line2d_42">
      <g>
       <use style="stroke:#000000;stroke-width:0.6;" x="216" xlink:href="#mafa285c237" y="188.860805"/>
      </g>
     </g>
    </g>
    <g id="ytick_22">
     <g id="line2d_43">
      <g>
       <use style="stroke:#000000;stroke-width:0.6;" x="216" xlink:href="#mafa285c237" y="154.20789"/>
      </g>
     </g>
    </g>
    <g id="ytick_23">
     <g id="line2d_44">
      <g>
       <use style="stroke:#000000;stroke-width:0.6;" x="216" xlink:href="#mafa285c237" y="127.329"/>
      </g>
     </g>
    </g>
    <g id="text_14">
     <!-- Frequency of occurrence -->
     <defs>
      <path d="M 9.8125 72.90625 
L 51.703125 72.90625 
L 51.703125 64.59375 
L 19.671875 64.59375 
L 19.671875 43.109375 
L 48.578125 43.109375 
L 48.578125 34.8125 
L 19.671875 34.8125 
L 19.671875 0 
L 9.8125 0 
z
" id="DejaVuSans-46"/>
      <path d="M 14.796875 27.296875 
Q 14.796875 17.390625 18.875 11.75 
Q 22.953125 6.109375 30.078125 6.109375 
Q 37.203125 6.109375 41.296875 11.75 
Q 45.40625 17.390625 45.40625 27.296875 
Q 45.40625 37.203125 41.296875 42.84375 
Q 37.203125 48.484375 30.078125 48.484375 
Q 22.953125 48.484375 18.875 42.84375 
Q 14.796875 37.203125 14.796875 27.296875 
z
M 45.40625 8.203125 
Q 42.578125 3.328125 38.25 0.953125 
Q 33.9375 -1.421875 27.875 -1.421875 
Q 17.96875 -1.421875 11.734375 6.484375 
Q 5.515625 14.40625 5.515625 27.296875 
Q 5.515625 40.1875 11.734375 48.09375 
Q 17.96875 56 27.875 56 
Q 33.9375 56 38.25 53.625 
Q 42.578125 51.265625 45.40625 46.390625 
L 45.40625 54.6875 
L 54.390625 54.6875 
L 54.390625 -20.796875 
L 45.40625 -20.796875 
z
" id="DejaVuSans-71"/>
      <path d="M 54.890625 33.015625 
L 54.890625 0 
L 45.90625 0 
L 45.90625 32.71875 
Q 45.90625 40.484375 42.875 44.328125 
Q 39.84375 48.1875 33.796875 48.1875 
Q 26.515625 48.1875 22.3125 43.546875 
Q 18.109375 38.921875 18.109375 30.90625 
L 18.109375 0 
L 9.078125 0 
L 9.078125 54.6875 
L 18.109375 54.6875 
L 18.109375 46.1875 
Q 21.34375 51.125 25.703125 53.5625 
Q 30.078125 56 35.796875 56 
Q 45.21875 56 50.046875 50.171875 
Q 54.890625 44.34375 54.890625 33.015625 
z
" id="DejaVuSans-6e"/>
      <path d="M 48.78125 52.59375 
L 48.78125 44.1875 
Q 44.96875 46.296875 41.140625 47.34375 
Q 37.3125 48.390625 33.40625 48.390625 
Q 24.65625 48.390625 19.8125 42.84375 
Q 14.984375 37.3125 14.984375 27.296875 
Q 14.984375 17.28125 19.8125 11.734375 
Q 24.65625 6.203125 33.40625 6.203125 
Q 37.3125 6.203125 41.140625 7.25 
Q 44.96875 8.296875 48.78125 10.40625 
L 48.78125 2.09375 
Q 45.015625 0.34375 40.984375 -0.53125 
Q 36.96875 -1.421875 32.421875 -1.421875 
Q 20.0625 -1.421875 12.78125 6.34375 
Q 5.515625 14.109375 5.515625 27.296875 
Q 5.515625 40.671875 12.859375 48.328125 
Q 20.21875 56 33.015625 56 
Q 37.15625 56 41.109375 55.140625 
Q 45.0625 54.296875 48.78125 52.59375 
z
" id="DejaVuSans-63"/>
      <path d="M 32.171875 -5.078125 
Q 28.375 -14.84375 24.75 -17.8125 
Q 21.140625 -20.796875 15.09375 -20.796875 
L 7.90625 -20.796875 
L 7.90625 -13.28125 
L 13.1875 -13.28125 
Q 16.890625 -13.28125 18.9375 -11.515625 
Q 21 -9.765625 23.484375 -3.21875 
L 25.09375 0.875 
L 2.984375 54.6875 
L 12.5 54.6875 
L 29.59375 11.921875 
L 46.6875 54.6875 
L 56.203125 54.6875 
z
" id="DejaVuSans-79"/>
      <path id="DejaVuSans-20"/>
      <path d="M 30.609375 48.390625 
Q 23.390625 48.390625 19.1875 42.75 
Q 14.984375 37.109375 14.984375 27.296875 
Q 14.984375 17.484375 19.15625 11.84375 
Q 23.34375 6.203125 30.609375 6.203125 
Q 37.796875 6.203125 41.984375 11.859375 
Q 46.1875 17.53125 46.1875 27.296875 
Q 46.1875 37.015625 41.984375 42.703125 
Q 37.796875 48.390625 30.609375 48.390625 
z
M 30.609375 56 
Q 42.328125 56 49.015625 48.375 
Q 55.71875 40.765625 55.71875 27.296875 
Q 55.71875 13.875 49.015625 6.21875 
Q 42.328125 -1.421875 30.609375 -1.421875 
Q 18.84375 -1.421875 12.171875 6.21875 
Q 5.515625 13.875 5.515625 27.296875 
Q 5.515625 40.765625 12.171875 48.375 
Q 18.84375 56 30.609375 56 
z
" id="DejaVuSans-6f"/>
      <path d="M 37.109375 75.984375 
L 37.109375 68.5 
L 28.515625 68.5 
Q 23.6875 68.5 21.796875 66.546875 
Q 19.921875 64.59375 19.921875 59.515625 
L 19.921875 54.6875 
L 34.71875 54.6875 
L 34.71875 47.703125 
L 19.921875 47.703125 
L 19.921875 0 
L 10.890625 0 
L 10.890625 47.703125 
L 2.296875 47.703125 
L 2.296875 54.6875 
L 10.890625 54.6875 
L 10.890625 58.5 
Q 10.890625 67.625 15.140625 71.796875 
Q 19.390625 75.984375 28.609375 75.984375 
z
" id="DejaVuSans-66"/>
     </defs>
     <g transform="translate(154.137031 706.745156)rotate(-90)scale(0.33 -0.33)">
      <use xlink:href="#DejaVuSans-46"/>
      <use x="57.410156" xlink:href="#DejaVuSans-72"/>
      <use x="98.492188" xlink:href="#DejaVuSans-65"/>
      <use x="160.015625" xlink:href="#DejaVuSans-71"/>
      <use x="223.492188" xlink:href="#DejaVuSans-75"/>
      <use x="286.871094" xlink:href="#DejaVuSans-65"/>
      <use x="348.394531" xlink:href="#DejaVuSans-6e"/>
      <use x="411.773438" xlink:href="#DejaVuSans-63"/>
      <use x="466.753906" xlink:href="#DejaVuSans-79"/>
      <use x="525.933594" xlink:href="#DejaVuSans-20"/>
      <use x="557.720703" xlink:href="#DejaVuSans-6f"/>
      <use x="618.902344" xlink:href="#DejaVuSans-66"/>
      <use x="654.107422" xlink:href="#DejaVuSans-20"/>
      <use x="685.894531" xlink:href="#DejaVuSans-6f"/>
      <use x="747.076172" xlink:href="#DejaVuSans-63"/>
      <use x="802.056641" xlink:href="#DejaVuSans-63"/>
      <use x="857.037109" xlink:href="#DejaVuSans-75"/>
      <use x="920.416016" xlink:href="#DejaVuSans-72"/>
      <use x="961.513672" xlink:href="#DejaVuSans-72"/>
      <use x="1002.595703" xlink:href="#DejaVuSans-65"/>
      <use x="1064.119141" xlink:href="#DejaVuSans-6e"/>
      <use x="1127.498047" xlink:href="#DejaVuSans-63"/>
      <use x="1182.478516" xlink:href="#DejaVuSans-65"/>
     </g>
    </g>
   </g>
   <g id="patch_204">
    <path d="M 216 882 
L 216 120.96 
" style="fill:none;stroke:#000000;stroke-linecap:square;stroke-linejoin:miter;stroke-width:0.8;"/>
   </g>
   <g id="patch_205">
    <path d="M 1555.2 882 
L 1555.2 120.96 
" style="fill:none;stroke:#000000;stroke-linecap:square;stroke-linejoin:miter;stroke-width:0.8;"/>
   </g>
   <g id="patch_206">
    <path d="M 216 882 
L 1555.2 882 
" style="fill:none;stroke:#000000;stroke-linecap:square;stroke-linejoin:miter;stroke-width:0.8;"/>
   </g>
   <g id="patch_207">
    <path d="M 216 120.96 
L 1555.2 120.96 
" style="fill:none;stroke:#000000;stroke-linecap:square;stroke-linejoin:miter;stroke-width:0.8;"/>
   </g>
   <g id="text_15">
    <!-- 37% of numbers in dataset less than 10 -->
    <defs>
     <path d="M 72.703125 32.078125 
Q 68.453125 32.078125 66.03125 28.46875 
Q 63.625 24.859375 63.625 18.40625 
Q 63.625 12.0625 66.03125 8.421875 
Q 68.453125 4.78125 72.703125 4.78125 
Q 76.859375 4.78125 79.265625 8.421875 
Q 81.6875 12.0625 81.6875 18.40625 
Q 81.6875 24.8125 79.265625 28.4375 
Q 76.859375 32.078125 72.703125 32.078125 
z
M 72.703125 38.28125 
Q 80.421875 38.28125 84.953125 32.90625 
Q 89.5 27.546875 89.5 18.40625 
Q 89.5 9.28125 84.9375 3.921875 
Q 80.375 -1.421875 72.703125 -1.421875 
Q 64.890625 -1.421875 60.34375 3.921875 
Q 55.8125 9.28125 55.8125 18.40625 
Q 55.8125 27.59375 60.375 32.9375 
Q 64.9375 38.28125 72.703125 38.28125 
z
M 22.3125 68.015625 
Q 18.109375 68.015625 15.6875 64.375 
Q 13.28125 60.75 13.28125 54.390625 
Q 13.28125 47.953125 15.671875 44.328125 
Q 18.0625 40.71875 22.3125 40.71875 
Q 26.5625 40.71875 28.96875 44.328125 
Q 31.390625 47.953125 31.390625 54.390625 
Q 31.390625 60.6875 28.953125 64.34375 
Q 26.515625 68.015625 22.3125 68.015625 
z
M 66.40625 74.21875 
L 74.21875 74.21875 
L 28.609375 -1.421875 
L 20.796875 -1.421875 
z
M 22.3125 74.21875 
Q 30.03125 74.21875 34.609375 68.875 
Q 39.203125 63.53125 39.203125 54.390625 
Q 39.203125 45.171875 34.640625 39.84375 
Q 30.078125 34.515625 22.3125 34.515625 
Q 14.546875 34.515625 10.03125 39.859375 
Q 5.515625 45.21875 5.515625 54.390625 
Q 5.515625 63.484375 10.046875 68.84375 
Q 14.59375 74.21875 22.3125 74.21875 
z
" id="DejaVuSans-25"/>
     <path d="M 44.28125 53.078125 
L 44.28125 44.578125 
Q 40.484375 46.53125 36.375 47.5 
Q 32.28125 48.484375 27.875 48.484375 
Q 21.1875 48.484375 17.84375 46.4375 
Q 14.5 44.390625 14.5 40.28125 
Q 14.5 37.15625 16.890625 35.375 
Q 19.28125 33.59375 26.515625 31.984375 
L 29.59375 31.296875 
Q 39.15625 29.25 43.1875 25.515625 
Q 47.21875 21.78125 47.21875 15.09375 
Q 47.21875 7.46875 41.1875 3.015625 
Q 35.15625 -1.421875 24.609375 -1.421875 
Q 20.21875 -1.421875 15.453125 -0.5625 
Q 10.6875 0.296875 5.421875 2 
L 5.421875 11.28125 
Q 10.40625 8.6875 15.234375 7.390625 
Q 20.0625 6.109375 24.8125 6.109375 
Q 31.15625 6.109375 34.5625 8.28125 
Q 37.984375 10.453125 37.984375 14.40625 
Q 37.984375 18.0625 35.515625 20.015625 
Q 33.0625 21.96875 24.703125 23.78125 
L 21.578125 24.515625 
Q 13.234375 26.265625 9.515625 29.90625 
Q 5.8125 33.546875 5.8125 39.890625 
Q 5.8125 47.609375 11.28125 51.796875 
Q 16.75 56 26.8125 56 
Q 31.78125 56 36.171875 55.265625 
Q 40.578125 54.546875 44.28125 53.078125 
z
" id="DejaVuSans-73"/>
     <path d="M 9.421875 54.6875 
L 18.40625 54.6875 
L 18.40625 0 
L 9.421875 0 
z
M 9.421875 75.984375 
L 18.40625 75.984375 
L 18.40625 64.59375 
L 9.421875 64.59375 
z
" id="DejaVuSans-69"/>
     <path d="M 45.40625 46.390625 
L 45.40625 75.984375 
L 54.390625 75.984375 
L 54.390625 0 
L 45.40625 0 
L 45.40625 8.203125 
Q 42.578125 3.328125 38.25 0.953125 
Q 33.9375 -1.421875 27.875 -1.421875 
Q 17.96875 -1.421875 11.734375 6.484375 
Q 5.515625 14.40625 5.515625 27.296875 
Q 5.515625 40.1875 11.734375 48.09375 
Q 17.96875 56 27.875 56 
Q 33.9375 56 38.25 53.625 
Q 42.578125 51.265625 45.40625 46.390625 
z
M 14.796875 27.296875 
Q 14.796875 17.390625 18.875 11.75 
Q 22.953125 6.109375 30.078125 6.109375 
Q 37.203125 6.109375 41.296875 11.75 
Q 45.40625 17.390625 45.40625 27.296875 
Q 45.40625 37.203125 41.296875 42.84375 
Q 37.203125 48.484375 30.078125 48.484375 
Q 22.953125 48.484375 18.875 42.84375 
Q 14.796875 37.203125 14.796875 27.296875 
z
" id="DejaVuSans-64"/>
     <path d="M 34.28125 27.484375 
Q 23.390625 27.484375 19.1875 25 
Q 14.984375 22.515625 14.984375 16.5 
Q 14.984375 11.71875 18.140625 8.90625 
Q 21.296875 6.109375 26.703125 6.109375 
Q 34.1875 6.109375 38.703125 11.40625 
Q 43.21875 16.703125 43.21875 25.484375 
L 43.21875 27.484375 
z
M 52.203125 31.203125 
L 52.203125 0 
L 43.21875 0 
L 43.21875 8.296875 
Q 40.140625 3.328125 35.546875 0.953125 
Q 30.953125 -1.421875 24.3125 -1.421875 
Q 15.921875 -1.421875 10.953125 3.296875 
Q 6 8.015625 6 15.921875 
Q 6 25.140625 12.171875 29.828125 
Q 18.359375 34.515625 30.609375 34.515625 
L 43.21875 34.515625 
L 43.21875 35.40625 
Q 43.21875 41.609375 39.140625 45 
Q 35.0625 48.390625 27.6875 48.390625 
Q 23 48.390625 18.546875 47.265625 
Q 14.109375 46.140625 10.015625 43.890625 
L 10.015625 52.203125 
Q 14.9375 54.109375 19.578125 55.046875 
Q 24.21875 56 28.609375 56 
Q 40.484375 56 46.34375 49.84375 
Q 52.203125 43.703125 52.203125 31.203125 
z
" id="DejaVuSans-61"/>
     <path d="M 18.3125 70.21875 
L 18.3125 54.6875 
L 36.8125 54.6875 
L 36.8125 47.703125 
L 18.3125 47.703125 
L 18.3125 18.015625 
Q 18.3125 11.328125 20.140625 9.421875 
Q 21.96875 7.515625 27.59375 7.515625 
L 36.8125 7.515625 
L 36.8125 0 
L 27.59375 0 
Q 17.1875 0 13.234375 3.875 
Q 9.28125 7.765625 9.28125 18.015625 
L 9.28125 47.703125 
L 2.6875 47.703125 
L 2.6875 54.6875 
L 9.28125 54.6875 
L 9.28125 70.21875 
z
" id="DejaVuSans-74"/>
     <path d="M 9.421875 75.984375 
L 18.40625 75.984375 
L 18.40625 0 
L 9.421875 0 
z
" id="DejaVuSans-6c"/>
     <path d="M 54.890625 33.015625 
L 54.890625 0 
L 45.90625 0 
L 45.90625 32.71875 
Q 45.90625 40.484375 42.875 44.328125 
Q 39.84375 48.1875 33.796875 48.1875 
Q 26.515625 48.1875 22.3125 43.546875 
Q 18.109375 38.921875 18.109375 30.90625 
L 18.109375 0 
L 9.078125 0 
L 9.078125 75.984375 
L 18.109375 75.984375 
L 18.109375 46.1875 
Q 21.34375 51.125 25.703125 53.5625 
Q 30.078125 56 35.796875 56 
Q 45.21875 56 50.046875 50.171875 
Q 54.890625 44.34375 54.890625 33.015625 
z
" id="DejaVuSans-68"/>
    </defs>
    <g transform="translate(764.460244 272.354261)scale(0.33 -0.33)">
     <use xlink:href="#DejaVuSans-33"/>
     <use x="63.623047" xlink:href="#DejaVuSans-37"/>
     <use x="127.246094" xlink:href="#DejaVuSans-25"/>
     <use x="222.265625" xlink:href="#DejaVuSans-20"/>
     <use x="254.052734" xlink:href="#DejaVuSans-6f"/>
     <use x="315.234375" xlink:href="#DejaVuSans-66"/>
     <use x="350.439453" xlink:href="#DejaVuSans-20"/>
     <use x="382.226562" xlink:href="#DejaVuSans-6e"/>
     <use x="445.605469" xlink:href="#DejaVuSans-75"/>
     <use x="508.984375" xlink:href="#DejaVuSans-6d"/>
     <use x="606.396484" xlink:href="#DejaVuSans-62"/>
     <use x="669.873047" xlink:href="#DejaVuSans-65"/>
     <use x="731.396484" xlink:href="#DejaVuSans-72"/>
     <use x="772.509766" xlink:href="#DejaVuSans-73"/>
     <use x="824.609375" xlink:href="#DejaVuSans-20"/>
     <use x="856.396484" xlink:href="#DejaVuSans-69"/>
     <use x="884.179688" xlink:href="#DejaVuSans-6e"/>
     <use x="947.558594" xlink:href="#DejaVuSans-20"/>
     <use x="979.345703" xlink:href="#DejaVuSans-64"/>
     <use x="1042.822266" xlink:href="#DejaVuSans-61"/>
     <use x="1104.101562" xlink:href="#DejaVuSans-74"/>
     <use x="1143.310547" xlink:href="#DejaVuSans-61"/>
     <use x="1204.589844" xlink:href="#DejaVuSans-73"/>
     <use x="1256.689453" xlink:href="#DejaVuSans-65"/>
     <use x="1318.212891" xlink:href="#DejaVuSans-74"/>
     <use x="1357.421875" xlink:href="#DejaVuSans-20"/>
     <use x="1389.208984" xlink:href="#DejaVuSans-6c"/>
     <use x="1416.992188" xlink:href="#DejaVuSans-65"/>
     <use x="1478.515625" xlink:href="#DejaVuSans-73"/>
     <use x="1530.615234" xlink:href="#DejaVuSans-73"/>
     <use x="1582.714844" xlink:href="#DejaVuSans-20"/>
     <use x="1614.501953" xlink:href="#DejaVuSans-74"/>
     <use x="1653.710938" xlink:href="#DejaVuSans-68"/>
     <use x="1717.089844" xlink:href="#DejaVuSans-61"/>
     <use x="1778.369141" xlink:href="#DejaVuSans-6e"/>
     <use x="1841.748047" xlink:href="#DejaVuSans-20"/>
     <use x="1873.535156" xlink:href="#DejaVuSans-31"/>
     <use x="1937.158203" xlink:href="#DejaVuSans-30"/>
    </g>
   </g>
   <g id="text_16">
    <!-- Frequency of occurrence of the first 200 numbers in dataset (log scaled) -->
    <defs>
     <path d="M 31 75.875 
Q 24.46875 64.65625 21.28125 53.65625 
Q 18.109375 42.671875 18.109375 31.390625 
Q 18.109375 20.125 21.3125 9.0625 
Q 24.515625 -2 31 -13.1875 
L 23.1875 -13.1875 
Q 15.875 -1.703125 12.234375 9.375 
Q 8.59375 20.453125 8.59375 31.390625 
Q 8.59375 42.28125 12.203125 53.3125 
Q 15.828125 64.359375 23.1875 75.875 
z
" id="DejaVuSans-28"/>
     <path d="M 45.40625 27.984375 
Q 45.40625 37.75 41.375 43.109375 
Q 37.359375 48.484375 30.078125 48.484375 
Q 22.859375 48.484375 18.828125 43.109375 
Q 14.796875 37.75 14.796875 27.984375 
Q 14.796875 18.265625 18.828125 12.890625 
Q 22.859375 7.515625 30.078125 7.515625 
Q 37.359375 7.515625 41.375 12.890625 
Q 45.40625 18.265625 45.40625 27.984375 
z
M 54.390625 6.78125 
Q 54.390625 -7.171875 48.1875 -13.984375 
Q 42 -20.796875 29.203125 -20.796875 
Q 24.46875 -20.796875 20.265625 -20.09375 
Q 16.0625 -19.390625 12.109375 -17.921875 
L 12.109375 -9.1875 
Q 16.0625 -11.328125 19.921875 -12.34375 
Q 23.78125 -13.375 27.78125 -13.375 
Q 36.625 -13.375 41.015625 -8.765625 
Q 45.40625 -4.15625 45.40625 5.171875 
L 45.40625 9.625 
Q 42.625 4.78125 38.28125 2.390625 
Q 33.9375 0 27.875 0 
Q 17.828125 0 11.671875 7.65625 
Q 5.515625 15.328125 5.515625 27.984375 
Q 5.515625 40.671875 11.671875 48.328125 
Q 17.828125 56 27.875 56 
Q 33.9375 56 38.28125 53.609375 
Q 42.625 51.21875 45.40625 46.390625 
L 45.40625 54.6875 
L 54.390625 54.6875 
z
" id="DejaVuSans-67"/>
     <path d="M 8.015625 75.875 
L 15.828125 75.875 
Q 23.140625 64.359375 26.78125 53.3125 
Q 30.421875 42.28125 30.421875 31.390625 
Q 30.421875 20.453125 26.78125 9.375 
Q 23.140625 -1.703125 15.828125 -13.1875 
L 8.015625 -13.1875 
Q 14.5 -2 17.703125 9.0625 
Q 20.90625 20.125 20.90625 31.390625 
Q 20.90625 42.671875 17.703125 53.65625 
Q 14.5 64.65625 8.015625 75.875 
z
" id="DejaVuSans-29"/>
    </defs>
    <g transform="translate(248.586328 114.96)scale(0.35 -0.35)">
     <use xlink:href="#DejaVuSans-46"/>
     <use x="57.410156" xlink:href="#DejaVuSans-72"/>
     <use x="98.492188" xlink:href="#DejaVuSans-65"/>
     <use x="160.015625" xlink:href="#DejaVuSans-71"/>
     <use x="223.492188" xlink:href="#DejaVuSans-75"/>
     <use x="286.871094" xlink:href="#DejaVuSans-65"/>
     <use x="348.394531" xlink:href="#DejaVuSans-6e"/>
     <use x="411.773438" xlink:href="#DejaVuSans-63"/>
     <use x="466.753906" xlink:href="#DejaVuSans-79"/>
     <use x="525.933594" xlink:href="#DejaVuSans-20"/>
     <use x="557.720703" xlink:href="#DejaVuSans-6f"/>
     <use x="618.902344" xlink:href="#DejaVuSans-66"/>
     <use x="654.107422" xlink:href="#DejaVuSans-20"/>
     <use x="685.894531" xlink:href="#DejaVuSans-6f"/>
     <use x="747.076172" xlink:href="#DejaVuSans-63"/>
     <use x="802.056641" xlink:href="#DejaVuSans-63"/>
     <use x="857.037109" xlink:href="#DejaVuSans-75"/>
     <use x="920.416016" xlink:href="#DejaVuSans-72"/>
     <use x="961.513672" xlink:href="#DejaVuSans-72"/>
     <use x="1002.595703" xlink:href="#DejaVuSans-65"/>
     <use x="1064.119141" xlink:href="#DejaVuSans-6e"/>
     <use x="1127.498047" xlink:href="#DejaVuSans-63"/>
     <use x="1182.478516" xlink:href="#DejaVuSans-65"/>
     <use x="1244.001953" xlink:href="#DejaVuSans-20"/>
     <use x="1275.789062" xlink:href="#DejaVuSans-6f"/>
     <use x="1336.970703" xlink:href="#DejaVuSans-66"/>
     <use x="1372.175781" xlink:href="#DejaVuSans-20"/>
     <use x="1403.962891" xlink:href="#DejaVuSans-74"/>
     <use x="1443.171875" xlink:href="#DejaVuSans-68"/>
     <use x="1506.550781" xlink:href="#DejaVuSans-65"/>
     <use x="1568.074219" xlink:href="#DejaVuSans-20"/>
     <use x="1599.861328" xlink:href="#DejaVuSans-66"/>
     <use x="1635.066406" xlink:href="#DejaVuSans-69"/>
     <use x="1662.849609" xlink:href="#DejaVuSans-72"/>
     <use x="1703.962891" xlink:href="#DejaVuSans-73"/>
     <use x="1756.0625" xlink:href="#DejaVuSans-74"/>
     <use x="1795.271484" xlink:href="#DejaVuSans-20"/>
     <use x="1827.058594" xlink:href="#DejaVuSans-32"/>
     <use x="1890.681641" xlink:href="#DejaVuSans-30"/>
     <use x="1954.304688" xlink:href="#DejaVuSans-30"/>
     <use x="2017.927734" xlink:href="#DejaVuSans-20"/>
     <use x="2049.714844" xlink:href="#DejaVuSans-6e"/>
     <use x="2113.09375" xlink:href="#DejaVuSans-75"/>
     <use x="2176.472656" xlink:href="#DejaVuSans-6d"/>
     <use x="2273.884766" xlink:href="#DejaVuSans-62"/>
     <use x="2337.361328" xlink:href="#DejaVuSans-65"/>
     <use x="2398.884766" xlink:href="#DejaVuSans-72"/>
     <use x="2439.998047" xlink:href="#DejaVuSans-73"/>
     <use x="2492.097656" xlink:href="#DejaVuSans-20"/>
     <use x="2523.884766" xlink:href="#DejaVuSans-69"/>
     <use x="2551.667969" xlink:href="#DejaVuSans-6e"/>
     <use x="2615.046875" xlink:href="#DejaVuSans-20"/>
     <use x="2646.833984" xlink:href="#DejaVuSans-64"/>
     <use x="2710.310547" xlink:href="#DejaVuSans-61"/>
     <use x="2771.589844" xlink:href="#DejaVuSans-74"/>
     <use x="2810.798828" xlink:href="#DejaVuSans-61"/>
     <use x="2872.078125" xlink:href="#DejaVuSans-73"/>
     <use x="2924.177734" xlink:href="#DejaVuSans-65"/>
     <use x="2985.701172" xlink:href="#DejaVuSans-74"/>
     <use x="3024.910156" xlink:href="#DejaVuSans-20"/>
     <use x="3056.697266" xlink:href="#DejaVuSans-28"/>
     <use x="3095.710938" xlink:href="#DejaVuSans-6c"/>
     <use x="3123.494141" xlink:href="#DejaVuSans-6f"/>
     <use x="3184.675781" xlink:href="#DejaVuSans-67"/>
     <use x="3248.152344" xlink:href="#DejaVuSans-20"/>
     <use x="3279.939453" xlink:href="#DejaVuSans-73"/>
     <use x="3332.039062" xlink:href="#DejaVuSans-63"/>
     <use x="3387.019531" xlink:href="#DejaVuSans-61"/>
     <use x="3448.298828" xlink:href="#DejaVuSans-6c"/>
     <use x="3476.082031" xlink:href="#DejaVuSans-65"/>
     <use x="3537.605469" xlink:href="#DejaVuSans-64"/>
     <use x="3601.082031" xlink:href="#DejaVuSans-29"/>
    </g>
   </g>
  </g>
 </g>
 <defs>
  <clipPath id="pc657994f8d">
   <rect height="761.04" width="1339.2" x="216" y="120.96"/>
  </clipPath>
 </defs>
</svg>
