<?xml version="1.0" encoding="utf-8" standalone="no"?>
<!DOCTYPE svg PUBLIC "-//W3C//DTD SVG 1.1//EN"
  "http://www.w3.org/Graphics/SVG/1.1/DTD/svg11.dtd">
<!-- Created with matplotlib (http://matplotlib.org/) -->
<svg height="1008pt" version="1.1" viewBox="0 0 1728 1008" width="1728pt" xmlns="http://www.w3.org/2000/svg" xmlns:xlink="http://www.w3.org/1999/xlink">
 <defs>
  <style type="text/css">
*{stroke-linecap:butt;stroke-linejoin:round;}
  </style>
 </defs>
 <g id="figure_1">
  <g id="patch_1">
   <path d="M 0 1008 
L 1728 1008 
L 1728 0 
L 0 0 
z
" style="fill:none;"/>
  </g>
  <g id="axes_1">
   <g id="patch_2">
    <path d="M 216 882 
L 1555.2 882 
L 1555.2 120.96 
L 216 120.96 
z
" style="fill:none;"/>
   </g>
   <g id="patch_3">
    <path clip-path="url(#p18435d4034)" d="M 276.872727 152009.106755 
L 288.750333 152009.106755 
L 288.750333 155.552727 
L 276.872727 155.552727 
z
" style="fill:#ed4322;"/>
   </g>
   <g id="patch_4">
    <path clip-path="url(#p18435d4034)" d="M 292.090909 152009.106755 
L 303.968514 152009.106755 
L 303.968514 183.703431 
L 292.090909 183.703431 
z
" style="fill:#ed4322;"/>
   </g>
   <g id="patch_5">
    <path clip-path="url(#p18435d4034)" d="M 307.309091 152009.106755 
L 319.186696 152009.106755 
L 319.186696 258.945512 
L 307.309091 258.945512 
z
" style="fill:#ed4322;"/>
   </g>
   <g id="patch_6">
    <path clip-path="url(#p18435d4034)" d="M 322.527273 152009.106755 
L 334.404878 152009.106755 
L 334.404878 244.321635 
L 322.527273 244.321635 
z
" style="fill:#ed4322;"/>
   </g>
   <g id="patch_7">
    <path clip-path="url(#p18435d4034)" d="M 337.745455 152009.106755 
L 349.62306 152009.106755 
L 349.62306 285.06167 
L 337.745455 285.06167 
z
" style="fill:#ed4322;"/>
   </g>
   <g id="patch_8">
    <path clip-path="url(#p18435d4034)" d="M 352.963636 152009.106755 
L 364.841242 152009.106755 
L 364.841242 262.803223 
L 352.963636 262.803223 
z
" style="fill:#ed4322;"/>
   </g>
   <g id="patch_9">
    <path clip-path="url(#p18435d4034)" d="M 368.181818 152009.106755 
L 380.059424 152009.106755 
L 380.059424 271.263382 
L 368.181818 271.263382 
z
" style="fill:#ed4322;"/>
   </g>
   <g id="patch_10">
    <path clip-path="url(#p18435d4034)" d="M 383.4 152009.106755 
L 395.277605 152009.106755 
L 395.277605 291.452594 
L 383.4 291.452594 
z
" style="fill:#ed4322;"/>
   </g>
   <g id="patch_11">
    <path clip-path="url(#p18435d4034)" d="M 398.618182 152009.106755 
L 410.495787 152009.106755 
L 410.495787 307.273291 
L 398.618182 307.273291 
z
" style="fill:#ed4322;"/>
   </g>
   <g id="patch_12">
    <path clip-path="url(#p18435d4034)" d="M 413.836364 152009.106755 
L 425.713969 152009.106755 
L 425.713969 373.20736 
L 413.836364 373.20736 
z
" style="fill:#ed4322;"/>
   </g>
   <g id="patch_13">
    <path clip-path="url(#p18435d4034)" d="M 429.054545 152009.106755 
L 440.932151 152009.106755 
L 440.932151 363.231378 
L 429.054545 363.231378 
z
" style="fill:#ed4322;"/>
   </g>
   <g id="patch_14">
    <path clip-path="url(#p18435d4034)" d="M 444.272727 152009.106755 
L 456.150333 152009.106755 
L 456.150333 416.498743 
L 444.272727 416.498743 
z
" style="fill:#ed4322;"/>
   </g>
   <g id="patch_15">
    <path clip-path="url(#p18435d4034)" d="M 459.490909 152009.106755 
L 471.368514 152009.106755 
L 471.368514 411.593981 
L 459.490909 411.593981 
z
" style="fill:#ed4322;"/>
   </g>
   <g id="patch_16">
    <path clip-path="url(#p18435d4034)" d="M 474.709091 152009.106755 
L 486.586696 152009.106755 
L 486.586696 465.131926 
L 474.709091 465.131926 
z
" style="fill:#ed4322;"/>
   </g>
   <g id="patch_17">
    <path clip-path="url(#p18435d4034)" d="M 489.927273 152009.106755 
L 501.804878 152009.106755 
L 501.804878 441.969665 
L 489.927273 441.969665 
z
" style="fill:#ed4322;"/>
   </g>
   <g id="patch_18">
    <path clip-path="url(#p18435d4034)" d="M 505.145455 152009.106755 
L 517.02306 152009.106755 
L 517.02306 503.641707 
L 505.145455 503.641707 
z
" style="fill:#ed4322;"/>
   </g>
   <g id="patch_19">
    <path clip-path="url(#p18435d4034)" d="M 520.363636 152009.106755 
L 532.241242 152009.106755 
L 532.241242 490.690531 
L 520.363636 490.690531 
z
" style="fill:#ed4322;"/>
   </g>
   <g id="patch_20">
    <path clip-path="url(#p18435d4034)" d="M 535.581818 152009.106755 
L 547.459424 152009.106755 
L 547.459424 505.411321 
L 535.581818 505.411321 
z
" style="fill:#ed4322;"/>
   </g>
   <g id="patch_21">
    <path clip-path="url(#p18435d4034)" d="M 550.8 152009.106755 
L 562.677605 152009.106755 
L 562.677605 549.145913 
L 550.8 549.145913 
z
" style="fill:#ed4322;"/>
   </g>
   <g id="patch_22">
    <path clip-path="url(#p18435d4034)" d="M 566.018182 152009.106755 
L 577.895787 152009.106755 
L 577.895787 553.475967 
L 566.018182 553.475967 
z
" style="fill:#ed4322;"/>
   </g>
   <g id="patch_23">
    <path clip-path="url(#p18435d4034)" d="M 581.236364 152009.106755 
L 593.113969 152009.106755 
L 593.113969 590.58808 
L 581.236364 590.58808 
z
" style="fill:#ed4322;"/>
   </g>
   <g id="patch_24">
    <path clip-path="url(#p18435d4034)" d="M 596.454545 152009.106755 
L 608.332151 152009.106755 
L 608.332151 585.535688 
L 596.454545 585.535688 
z
" style="fill:#ed4322;"/>
   </g>
   <g id="patch_25">
    <path clip-path="url(#p18435d4034)" d="M 611.672727 152009.106755 
L 623.550333 152009.106755 
L 623.550333 621.970505 
L 611.672727 621.970505 
z
" style="fill:#ed4322;"/>
   </g>
   <g id="patch_26">
    <path clip-path="url(#p18435d4034)" d="M 626.890909 152009.106755 
L 638.768514 152009.106755 
L 638.768514 644.484379 
L 626.890909 644.484379 
z
" style="fill:#ed4322;"/>
   </g>
   <g id="patch_27">
    <path clip-path="url(#p18435d4034)" d="M 642.109091 152009.106755 
L 653.986696 152009.106755 
L 653.986696 617.866125 
L 642.109091 617.866125 
z
" style="fill:#ed4322;"/>
   </g>
   <g id="patch_28">
    <path clip-path="url(#p18435d4034)" d="M 657.327273 152009.106755 
L 669.204878 152009.106755 
L 669.204878 703.162353 
L 657.327273 703.162353 
z
" style="fill:#ed4322;"/>
   </g>
   <g id="patch_29">
    <path clip-path="url(#p18435d4034)" d="M 672.545455 152009.106755 
L 684.42306 152009.106755 
L 684.42306 689.988585 
L 672.545455 689.988585 
z
" style="fill:#ed4322;"/>
   </g>
   <g id="patch_30">
    <path clip-path="url(#p18435d4034)" d="M 687.763636 152009.106755 
L 699.641242 152009.106755 
L 699.641242 719.660817 
L 687.763636 719.660817 
z
" style="fill:#ed4322;"/>
   </g>
   <g id="patch_31">
    <path clip-path="url(#p18435d4034)" d="M 702.981818 152009.106755 
L 714.859424 152009.106755 
L 714.859424 729.780607 
L 702.981818 729.780607 
z
" style="fill:#ed4322;"/>
   </g>
   <g id="patch_32">
    <path clip-path="url(#p18435d4034)" d="M 718.2 152009.106755 
L 730.077605 152009.106755 
L 730.077605 801.903067 
L 718.2 801.903067 
z
" style="fill:#ed4322;"/>
   </g>
   <g id="patch_33">
    <path clip-path="url(#p18435d4034)" d="M 733.418182 152009.106755 
L 745.295787 152009.106755 
L 745.295787 684.276402 
L 733.418182 684.276402 
z
" style="fill:#ed4322;"/>
   </g>
   <g id="patch_34">
    <path clip-path="url(#p18435d4034)" d="M 748.636364 152009.106755 
L 760.513969 152009.106755 
L 760.513969 775.284813 
L 748.636364 775.284813 
z
" style="fill:#ed4322;"/>
   </g>
   <g id="patch_35">
    <path clip-path="url(#p18435d4034)" d="M 763.854545 152009.106755 
L 775.732151 152009.106755 
L 775.732151 775.284813 
L 763.854545 775.284813 
z
" style="fill:#ed4322;"/>
   </g>
   <g id="patch_36">
    <path clip-path="url(#p18435d4034)" d="M 779.072727 152009.106755 
L 790.950333 152009.106755 
L 790.950333 775.284813 
L 779.072727 775.284813 
z
" style="fill:#ed4322;"/>
   </g>
   <g id="patch_37">
    <path clip-path="url(#p18435d4034)" d="M 794.290909 152009.106755 
L 806.168514 152009.106755 
L 806.168514 775.284813 
L 794.290909 775.284813 
z
" style="fill:#ed4322;"/>
   </g>
   <g id="patch_38">
    <path clip-path="url(#p18435d4034)" d="M 809.509091 152009.106755 
L 821.386696 152009.106755 
L 821.386696 756.398861 
L 809.509091 756.398861 
z
" style="fill:#ed4322;"/>
   </g>
   <g id="patch_39">
    <path clip-path="url(#p18435d4034)" d="M 824.727273 152009.106755 
L 836.604878 152009.106755 
L 836.604878 847.407273 
L 824.727273 847.407273 
z
" style="fill:#ed4322;"/>
   </g>
   <g id="patch_40">
    <path clip-path="url(#p18435d4034)" d="M 839.945455 152009.106755 
L 851.82306 152009.106755 
L 851.82306 756.398861 
L 839.945455 756.398861 
z
" style="fill:#ed4322;"/>
   </g>
   <g id="patch_41">
    <path clip-path="url(#p18435d4034)" d="M 855.163636 152009.106755 
L 867.041242 152009.106755 
L 867.041242 756.398861 
L 855.163636 756.398861 
z
" style="fill:#ed4322;"/>
   </g>
   <g id="patch_42">
    <path clip-path="url(#p18435d4034)" d="M 870.381818 152009.106755 
L 882.259424 152009.106755 
L 882.259424 775.284813 
L 870.381818 775.284813 
z
" style="fill:#ed4322;"/>
   </g>
   <g id="patch_43">
    <path clip-path="url(#p18435d4034)" d="M 885.6 152009.106755 
L 897.477605 152009.106755 
L 897.477605 847.407273 
L 885.6 847.407273 
z
" style="fill:#ed4322;"/>
   </g>
   <g id="patch_44">
    <path clip-path="url(#p18435d4034)" d="M 900.818182 152009.106755 
L 912.695787 152009.106755 
L 912.695787 847.407273 
L 900.818182 847.407273 
z
" style="fill:#ed4322;"/>
   </g>
   <g id="patch_45">
    <path clip-path="url(#p18435d4034)" d="M 916.036364 152009.106755 
L 927.913969 152009.106755 
L 927.913969 847.407273 
L 916.036364 847.407273 
z
" style="fill:#ed4322;"/>
   </g>
   <g id="patch_46">
    <path clip-path="url(#p18435d4034)" d="M 931.254545 152009.106755 
L 943.132151 152009.106755 
L 943.132151 801.903067 
L 931.254545 801.903067 
z
" style="fill:#ed4322;"/>
   </g>
   <g id="patch_47">
    <path clip-path="url(#p18435d4034)" d="M 946.472727 152009.106755 
L 958.350333 152009.106755 
L 958.350333 775.284813 
L 946.472727 775.284813 
z
" style="fill:#ed4322;"/>
   </g>
   <g id="patch_48">
    <path clip-path="url(#p18435d4034)" d="M 961.690909 152009.106755 
L 973.568514 152009.106755 
L 973.568514 847.407273 
L 961.690909 847.407273 
z
" style="fill:#ed4322;"/>
   </g>
   <g id="patch_49">
    <path clip-path="url(#p18435d4034)" d="M 976.909091 152009.106755 
L 988.786696 152009.106755 
L 988.786696 801.903067 
L 976.909091 801.903067 
z
" style="fill:#ed4322;"/>
   </g>
   <g id="patch_50">
    <path clip-path="url(#p18435d4034)" d="M 992.127273 152009.106755 
L 1004.004878 152009.106755 
L 1004.004878 847.407273 
L 992.127273 847.407273 
z
" style="fill:#ed4322;"/>
   </g>
   <g id="patch_51">
    <path clip-path="url(#p18435d4034)" d="M 1007.345455 152009.106755 
L 1019.22306 152009.106755 
L 1019.22306 775.284813 
L 1007.345455 775.284813 
z
" style="fill:#ed4322;"/>
   </g>
   <g id="patch_52">
    <path clip-path="url(#p18435d4034)" d="M 1022.563636 152009.106755 
L 1034.441242 152009.106755 
L 1034.441242 801.903067 
L 1022.563636 801.903067 
z
" style="fill:#ed4322;"/>
   </g>
   <g id="patch_53">
    <path clip-path="url(#p18435d4034)" d="M 1037.781818 152009.106755 
L 1049.659424 152009.106755 
L 1049.659424 152009.106755 
L 1037.781818 152009.106755 
z
" style="fill:#ed4322;"/>
   </g>
   <g id="patch_54">
    <path clip-path="url(#p18435d4034)" d="M 1053 152009.106755 
L 1064.877605 152009.106755 
L 1064.877605 152009.106755 
L 1053 152009.106755 
z
" style="fill:#ed4322;"/>
   </g>
   <g id="patch_55">
    <path clip-path="url(#p18435d4034)" d="M 1068.218182 152009.106755 
L 1080.095787 152009.106755 
L 1080.095787 152009.106755 
L 1068.218182 152009.106755 
z
" style="fill:#ed4322;"/>
   </g>
   <g id="patch_56">
    <path clip-path="url(#p18435d4034)" d="M 1083.436364 152009.106755 
L 1095.313969 152009.106755 
L 1095.313969 847.407273 
L 1083.436364 847.407273 
z
" style="fill:#ed4322;"/>
   </g>
   <g id="patch_57">
    <path clip-path="url(#p18435d4034)" d="M 1098.654545 152009.106755 
L 1110.532151 152009.106755 
L 1110.532151 152009.106755 
L 1098.654545 152009.106755 
z
" style="fill:#ed4322;"/>
   </g>
   <g id="patch_58">
    <path clip-path="url(#p18435d4034)" d="M 1113.872727 152009.106755 
L 1125.750333 152009.106755 
L 1125.750333 152009.106755 
L 1113.872727 152009.106755 
z
" style="fill:#ed4322;"/>
   </g>
   <g id="patch_59">
    <path clip-path="url(#p18435d4034)" d="M 1129.090909 152009.106755 
L 1140.968514 152009.106755 
L 1140.968514 152009.106755 
L 1129.090909 152009.106755 
z
" style="fill:#ed4322;"/>
   </g>
   <g id="patch_60">
    <path clip-path="url(#p18435d4034)" d="M 1144.309091 152009.106755 
L 1156.186696 152009.106755 
L 1156.186696 152009.106755 
L 1144.309091 152009.106755 
z
" style="fill:#ed4322;"/>
   </g>
   <g id="patch_61">
    <path clip-path="url(#p18435d4034)" d="M 1159.527273 152009.106755 
L 1171.404878 152009.106755 
L 1171.404878 152009.106755 
L 1159.527273 152009.106755 
z
" style="fill:#ed4322;"/>
   </g>
   <g id="patch_62">
    <path clip-path="url(#p18435d4034)" d="M 1174.745455 152009.106755 
L 1186.62306 152009.106755 
L 1186.62306 152009.106755 
L 1174.745455 152009.106755 
z
" style="fill:#ed4322;"/>
   </g>
   <g id="patch_63">
    <path clip-path="url(#p18435d4034)" d="M 1189.963636 152009.106755 
L 1201.841242 152009.106755 
L 1201.841242 152009.106755 
L 1189.963636 152009.106755 
z
" style="fill:#ed4322;"/>
   </g>
   <g id="patch_64">
    <path clip-path="url(#p18435d4034)" d="M 1205.181818 152009.106755 
L 1217.059424 152009.106755 
L 1217.059424 152009.106755 
L 1205.181818 152009.106755 
z
" style="fill:#ed4322;"/>
   </g>
   <g id="patch_65">
    <path clip-path="url(#p18435d4034)" d="M 1220.4 152009.106755 
L 1232.277605 152009.106755 
L 1232.277605 152009.106755 
L 1220.4 152009.106755 
z
" style="fill:#ed4322;"/>
   </g>
   <g id="patch_66">
    <path clip-path="url(#p18435d4034)" d="M 1235.618182 152009.106755 
L 1247.495787 152009.106755 
L 1247.495787 152009.106755 
L 1235.618182 152009.106755 
z
" style="fill:#ed4322;"/>
   </g>
   <g id="patch_67">
    <path clip-path="url(#p18435d4034)" d="M 1250.836364 152009.106755 
L 1262.713969 152009.106755 
L 1262.713969 152009.106755 
L 1250.836364 152009.106755 
z
" style="fill:#ed4322;"/>
   </g>
   <g id="patch_68">
    <path clip-path="url(#p18435d4034)" d="M 1266.054545 152009.106755 
L 1277.932151 152009.106755 
L 1277.932151 152009.106755 
L 1266.054545 152009.106755 
z
" style="fill:#ed4322;"/>
   </g>
   <g id="patch_69">
    <path clip-path="url(#p18435d4034)" d="M 1281.272727 152009.106755 
L 1293.150333 152009.106755 
L 1293.150333 152009.106755 
L 1281.272727 152009.106755 
z
" style="fill:#ed4322;"/>
   </g>
   <g id="patch_70">
    <path clip-path="url(#p18435d4034)" d="M 1296.490909 152009.106755 
L 1308.368514 152009.106755 
L 1308.368514 152009.106755 
L 1296.490909 152009.106755 
z
" style="fill:#ed4322;"/>
   </g>
   <g id="patch_71">
    <path clip-path="url(#p18435d4034)" d="M 1311.709091 152009.106755 
L 1323.586696 152009.106755 
L 1323.586696 847.407273 
L 1311.709091 847.407273 
z
" style="fill:#ed4322;"/>
   </g>
   <g id="patch_72">
    <path clip-path="url(#p18435d4034)" d="M 1326.927273 152009.106755 
L 1338.804878 152009.106755 
L 1338.804878 152009.106755 
L 1326.927273 152009.106755 
z
" style="fill:#ed4322;"/>
   </g>
   <g id="patch_73">
    <path clip-path="url(#p18435d4034)" d="M 1342.145455 152009.106755 
L 1354.02306 152009.106755 
L 1354.02306 152009.106755 
L 1342.145455 152009.106755 
z
" style="fill:#ed4322;"/>
   </g>
   <g id="patch_74">
    <path clip-path="url(#p18435d4034)" d="M 1357.363636 152009.106755 
L 1369.241242 152009.106755 
L 1369.241242 152009.106755 
L 1357.363636 152009.106755 
z
" style="fill:#ed4322;"/>
   </g>
   <g id="patch_75">
    <path clip-path="url(#p18435d4034)" d="M 1372.581818 152009.106755 
L 1384.459424 152009.106755 
L 1384.459424 152009.106755 
L 1372.581818 152009.106755 
z
" style="fill:#ed4322;"/>
   </g>
   <g id="patch_76">
    <path clip-path="url(#p18435d4034)" d="M 1387.8 152009.106755 
L 1399.677605 152009.106755 
L 1399.677605 152009.106755 
L 1387.8 152009.106755 
z
" style="fill:#ed4322;"/>
   </g>
   <g id="patch_77">
    <path clip-path="url(#p18435d4034)" d="M 1403.018182 152009.106755 
L 1414.895787 152009.106755 
L 1414.895787 152009.106755 
L 1403.018182 152009.106755 
z
" style="fill:#ed4322;"/>
   </g>
   <g id="patch_78">
    <path clip-path="url(#p18435d4034)" d="M 1418.236364 152009.106755 
L 1430.113969 152009.106755 
L 1430.113969 152009.106755 
L 1418.236364 152009.106755 
z
" style="fill:#ed4322;"/>
   </g>
   <g id="patch_79">
    <path clip-path="url(#p18435d4034)" d="M 1433.454545 152009.106755 
L 1445.332151 152009.106755 
L 1445.332151 152009.106755 
L 1433.454545 152009.106755 
z
" style="fill:#ed4322;"/>
   </g>
   <g id="patch_80">
    <path clip-path="url(#p18435d4034)" d="M 1448.672727 152009.106755 
L 1460.550333 152009.106755 
L 1460.550333 152009.106755 
L 1448.672727 152009.106755 
z
" style="fill:#ed4322;"/>
   </g>
   <g id="patch_81">
    <path clip-path="url(#p18435d4034)" d="M 1463.890909 152009.106755 
L 1475.768514 152009.106755 
L 1475.768514 152009.106755 
L 1463.890909 152009.106755 
z
" style="fill:#ed4322;"/>
   </g>
   <g id="patch_82">
    <path clip-path="url(#p18435d4034)" d="M 1479.109091 152009.106755 
L 1490.986696 152009.106755 
L 1490.986696 847.407273 
L 1479.109091 847.407273 
z
" style="fill:#ed4322;"/>
   </g>
   <g id="matplotlib.axis_1">
    <g id="xtick_1">
     <g id="line2d_1">
      <path clip-path="url(#p18435d4034)" d="M 270.933925 882 
L 270.933925 120.96 
" style="fill:none;stroke:#b0b0b0;stroke-linecap:square;stroke-width:0.8;"/>
     </g>
     <g id="line2d_2">
      <defs>
       <path d="M 0 0 
L 0 3.5 
" id="mc56488732b" style="stroke:#000000;stroke-width:0.8;"/>
      </defs>
      <g>
       <use style="stroke:#000000;stroke-width:0.8;" x="270.933925" xlink:href="#mc56488732b" y="882"/>
      </g>
     </g>
     <g id="text_1">
      <!-- 0 -->
      <defs>
       <path d="M 31.78125 66.40625 
Q 24.171875 66.40625 20.328125 58.90625 
Q 16.5 51.421875 16.5 36.375 
Q 16.5 21.390625 20.328125 13.890625 
Q 24.171875 6.390625 31.78125 6.390625 
Q 39.453125 6.390625 43.28125 13.890625 
Q 47.125 21.390625 47.125 36.375 
Q 47.125 51.421875 43.28125 58.90625 
Q 39.453125 66.40625 31.78125 66.40625 
z
M 31.78125 74.21875 
Q 44.046875 74.21875 50.515625 64.515625 
Q 56.984375 54.828125 56.984375 36.375 
Q 56.984375 17.96875 50.515625 8.265625 
Q 44.046875 -1.421875 31.78125 -1.421875 
Q 19.53125 -1.421875 13.0625 8.265625 
Q 6.59375 17.96875 6.59375 36.375 
Q 6.59375 54.828125 13.0625 64.515625 
Q 19.53125 74.21875 31.78125 74.21875 
z
" id="DejaVuSans-30"/>
      </defs>
      <g transform="translate(262.9808 907.996094)scale(0.25 -0.25)">
       <use xlink:href="#DejaVuSans-30"/>
      </g>
     </g>
    </g>
    <g id="xtick_2">
     <g id="line2d_3">
      <path clip-path="url(#p18435d4034)" d="M 567.874058 882 
L 567.874058 120.96 
" style="fill:none;stroke:#b0b0b0;stroke-linecap:square;stroke-width:0.8;"/>
     </g>
     <g id="line2d_4">
      <g>
       <use style="stroke:#000000;stroke-width:0.8;" x="567.874058" xlink:href="#mc56488732b" y="882"/>
      </g>
     </g>
     <g id="text_2">
      <!-- 50 -->
      <defs>
       <path d="M 10.796875 72.90625 
L 49.515625 72.90625 
L 49.515625 64.59375 
L 19.828125 64.59375 
L 19.828125 46.734375 
Q 21.96875 47.46875 24.109375 47.828125 
Q 26.265625 48.1875 28.421875 48.1875 
Q 40.625 48.1875 47.75 41.5 
Q 54.890625 34.8125 54.890625 23.390625 
Q 54.890625 11.625 47.5625 5.09375 
Q 40.234375 -1.421875 26.90625 -1.421875 
Q 22.3125 -1.421875 17.546875 -0.640625 
Q 12.796875 0.140625 7.71875 1.703125 
L 7.71875 11.625 
Q 12.109375 9.234375 16.796875 8.0625 
Q 21.484375 6.890625 26.703125 6.890625 
Q 35.15625 6.890625 40.078125 11.328125 
Q 45.015625 15.765625 45.015625 23.390625 
Q 45.015625 31 40.078125 35.4375 
Q 35.15625 39.890625 26.703125 39.890625 
Q 22.75 39.890625 18.8125 39.015625 
Q 14.890625 38.140625 10.796875 36.28125 
z
" id="DejaVuSans-35"/>
      </defs>
      <g transform="translate(551.967808 907.996094)scale(0.25 -0.25)">
       <use xlink:href="#DejaVuSans-35"/>
       <use x="63.623047" xlink:href="#DejaVuSans-30"/>
      </g>
     </g>
    </g>
    <g id="xtick_3">
     <g id="line2d_5">
      <path clip-path="url(#p18435d4034)" d="M 864.814191 882 
L 864.814191 120.96 
" style="fill:none;stroke:#b0b0b0;stroke-linecap:square;stroke-width:0.8;"/>
     </g>
     <g id="line2d_6">
      <g>
       <use style="stroke:#000000;stroke-width:0.8;" x="864.814191" xlink:href="#mc56488732b" y="882"/>
      </g>
     </g>
     <g id="text_3">
      <!-- 100 -->
      <defs>
       <path d="M 12.40625 8.296875 
L 28.515625 8.296875 
L 28.515625 63.921875 
L 10.984375 60.40625 
L 10.984375 69.390625 
L 28.421875 72.90625 
L 38.28125 72.90625 
L 38.28125 8.296875 
L 54.390625 8.296875 
L 54.390625 0 
L 12.40625 0 
z
" id="DejaVuSans-31"/>
      </defs>
      <g transform="translate(840.954816 907.996094)scale(0.25 -0.25)">
       <use xlink:href="#DejaVuSans-31"/>
       <use x="63.623047" xlink:href="#DejaVuSans-30"/>
       <use x="127.246094" xlink:href="#DejaVuSans-30"/>
      </g>
     </g>
    </g>
    <g id="xtick_4">
     <g id="line2d_7">
      <path clip-path="url(#p18435d4034)" d="M 1161.754324 882 
L 1161.754324 120.96 
" style="fill:none;stroke:#b0b0b0;stroke-linecap:square;stroke-width:0.8;"/>
     </g>
     <g id="line2d_8">
      <g>
       <use style="stroke:#000000;stroke-width:0.8;" x="1161.754324" xlink:href="#mc56488732b" y="882"/>
      </g>
     </g>
     <g id="text_4">
      <!-- 150 -->
      <g transform="translate(1137.894949 907.996094)scale(0.25 -0.25)">
       <use xlink:href="#DejaVuSans-31"/>
       <use x="63.623047" xlink:href="#DejaVuSans-35"/>
       <use x="127.246094" xlink:href="#DejaVuSans-30"/>
      </g>
     </g>
    </g>
    <g id="xtick_5">
     <g id="line2d_9">
      <path clip-path="url(#p18435d4034)" d="M 1458.694457 882 
L 1458.694457 120.96 
" style="fill:none;stroke:#b0b0b0;stroke-linecap:square;stroke-width:0.8;"/>
     </g>
     <g id="line2d_10">
      <g>
       <use style="stroke:#000000;stroke-width:0.8;" x="1458.694457" xlink:href="#mc56488732b" y="882"/>
      </g>
     </g>
     <g id="text_5">
      <!-- 200 -->
      <defs>
       <path d="M 19.1875 8.296875 
L 53.609375 8.296875 
L 53.609375 0 
L 7.328125 0 
L 7.328125 8.296875 
Q 12.9375 14.109375 22.625 23.890625 
Q 32.328125 33.6875 34.8125 36.53125 
Q 39.546875 41.84375 41.421875 45.53125 
Q 43.3125 49.21875 43.3125 52.78125 
Q 43.3125 58.59375 39.234375 62.25 
Q 35.15625 65.921875 28.609375 65.921875 
Q 23.96875 65.921875 18.8125 64.3125 
Q 13.671875 62.703125 7.8125 59.421875 
L 7.8125 69.390625 
Q 13.765625 71.78125 18.9375 73 
Q 24.125 74.21875 28.421875 74.21875 
Q 39.75 74.21875 46.484375 68.546875 
Q 53.21875 62.890625 53.21875 53.421875 
Q 53.21875 48.921875 51.53125 44.890625 
Q 49.859375 40.875 45.40625 35.40625 
Q 44.1875 33.984375 37.640625 27.21875 
Q 31.109375 20.453125 19.1875 8.296875 
z
" id="DejaVuSans-32"/>
      </defs>
      <g transform="translate(1434.835082 907.996094)scale(0.25 -0.25)">
       <use xlink:href="#DejaVuSans-32"/>
       <use x="63.623047" xlink:href="#DejaVuSans-30"/>
       <use x="127.246094" xlink:href="#DejaVuSans-30"/>
      </g>
     </g>
    </g>
    <g id="text_6">
     <!-- Number of digits in max number in sequence -->
     <defs>
      <path d="M 9.8125 72.90625 
L 23.09375 72.90625 
L 55.421875 11.921875 
L 55.421875 72.90625 
L 64.984375 72.90625 
L 64.984375 0 
L 51.703125 0 
L 19.390625 60.984375 
L 19.390625 0 
L 9.8125 0 
z
" id="DejaVuSans-4e"/>
      <path d="M 8.5 21.578125 
L 8.5 54.6875 
L 17.484375 54.6875 
L 17.484375 21.921875 
Q 17.484375 14.15625 20.5 10.265625 
Q 23.53125 6.390625 29.59375 6.390625 
Q 36.859375 6.390625 41.078125 11.03125 
Q 45.3125 15.671875 45.3125 23.6875 
L 45.3125 54.6875 
L 54.296875 54.6875 
L 54.296875 0 
L 45.3125 0 
L 45.3125 8.40625 
Q 42.046875 3.421875 37.71875 1 
Q 33.40625 -1.421875 27.6875 -1.421875 
Q 18.265625 -1.421875 13.375 4.4375 
Q 8.5 10.296875 8.5 21.578125 
z
M 31.109375 56 
z
" id="DejaVuSans-75"/>
      <path d="M 52 44.1875 
Q 55.375 50.25 60.0625 53.125 
Q 64.75 56 71.09375 56 
Q 79.640625 56 84.28125 50.015625 
Q 88.921875 44.046875 88.921875 33.015625 
L 88.921875 0 
L 79.890625 0 
L 79.890625 32.71875 
Q 79.890625 40.578125 77.09375 44.375 
Q 74.3125 48.1875 68.609375 48.1875 
Q 61.625 48.1875 57.5625 43.546875 
Q 53.515625 38.921875 53.515625 30.90625 
L 53.515625 0 
L 44.484375 0 
L 44.484375 32.71875 
Q 44.484375 40.625 41.703125 44.40625 
Q 38.921875 48.1875 33.109375 48.1875 
Q 26.21875 48.1875 22.15625 43.53125 
Q 18.109375 38.875 18.109375 30.90625 
L 18.109375 0 
L 9.078125 0 
L 9.078125 54.6875 
L 18.109375 54.6875 
L 18.109375 46.1875 
Q 21.1875 51.21875 25.484375 53.609375 
Q 29.78125 56 35.6875 56 
Q 41.65625 56 45.828125 52.96875 
Q 50 49.953125 52 44.1875 
z
" id="DejaVuSans-6d"/>
      <path d="M 48.6875 27.296875 
Q 48.6875 37.203125 44.609375 42.84375 
Q 40.53125 48.484375 33.40625 48.484375 
Q 26.265625 48.484375 22.1875 42.84375 
Q 18.109375 37.203125 18.109375 27.296875 
Q 18.109375 17.390625 22.1875 11.75 
Q 26.265625 6.109375 33.40625 6.109375 
Q 40.53125 6.109375 44.609375 11.75 
Q 48.6875 17.390625 48.6875 27.296875 
z
M 18.109375 46.390625 
Q 20.953125 51.265625 25.265625 53.625 
Q 29.59375 56 35.59375 56 
Q 45.5625 56 51.78125 48.09375 
Q 58.015625 40.1875 58.015625 27.296875 
Q 58.015625 14.40625 51.78125 6.484375 
Q 45.5625 -1.421875 35.59375 -1.421875 
Q 29.59375 -1.421875 25.265625 0.953125 
Q 20.953125 3.328125 18.109375 8.203125 
L 18.109375 0 
L 9.078125 0 
L 9.078125 75.984375 
L 18.109375 75.984375 
z
" id="DejaVuSans-62"/>
      <path d="M 56.203125 29.59375 
L 56.203125 25.203125 
L 14.890625 25.203125 
Q 15.484375 15.921875 20.484375 11.0625 
Q 25.484375 6.203125 34.421875 6.203125 
Q 39.59375 6.203125 44.453125 7.46875 
Q 49.3125 8.734375 54.109375 11.28125 
L 54.109375 2.78125 
Q 49.265625 0.734375 44.1875 -0.34375 
Q 39.109375 -1.421875 33.890625 -1.421875 
Q 20.796875 -1.421875 13.15625 6.1875 
Q 5.515625 13.8125 5.515625 26.8125 
Q 5.515625 40.234375 12.765625 48.109375 
Q 20.015625 56 32.328125 56 
Q 43.359375 56 49.78125 48.890625 
Q 56.203125 41.796875 56.203125 29.59375 
z
M 47.21875 32.234375 
Q 47.125 39.59375 43.09375 43.984375 
Q 39.0625 48.390625 32.421875 48.390625 
Q 24.90625 48.390625 20.390625 44.140625 
Q 15.875 39.890625 15.1875 32.171875 
z
" id="DejaVuSans-65"/>
      <path d="M 41.109375 46.296875 
Q 39.59375 47.171875 37.8125 47.578125 
Q 36.03125 48 33.890625 48 
Q 26.265625 48 22.1875 43.046875 
Q 18.109375 38.09375 18.109375 28.8125 
L 18.109375 0 
L 9.078125 0 
L 9.078125 54.6875 
L 18.109375 54.6875 
L 18.109375 46.1875 
Q 20.953125 51.171875 25.484375 53.578125 
Q 30.03125 56 36.53125 56 
Q 37.453125 56 38.578125 55.875 
Q 39.703125 55.765625 41.0625 55.515625 
z
" id="DejaVuSans-72"/>
      <path id="DejaVuSans-20"/>
      <path d="M 30.609375 48.390625 
Q 23.390625 48.390625 19.1875 42.75 
Q 14.984375 37.109375 14.984375 27.296875 
Q 14.984375 17.484375 19.15625 11.84375 
Q 23.34375 6.203125 30.609375 6.203125 
Q 37.796875 6.203125 41.984375 11.859375 
Q 46.1875 17.53125 46.1875 27.296875 
Q 46.1875 37.015625 41.984375 42.703125 
Q 37.796875 48.390625 30.609375 48.390625 
z
M 30.609375 56 
Q 42.328125 56 49.015625 48.375 
Q 55.71875 40.765625 55.71875 27.296875 
Q 55.71875 13.875 49.015625 6.21875 
Q 42.328125 -1.421875 30.609375 -1.421875 
Q 18.84375 -1.421875 12.171875 6.21875 
Q 5.515625 13.875 5.515625 27.296875 
Q 5.515625 40.765625 12.171875 48.375 
Q 18.84375 56 30.609375 56 
z
" id="DejaVuSans-6f"/>
      <path d="M 37.109375 75.984375 
L 37.109375 68.5 
L 28.515625 68.5 
Q 23.6875 68.5 21.796875 66.546875 
Q 19.921875 64.59375 19.921875 59.515625 
L 19.921875 54.6875 
L 34.71875 54.6875 
L 34.71875 47.703125 
L 19.921875 47.703125 
L 19.921875 0 
L 10.890625 0 
L 10.890625 47.703125 
L 2.296875 47.703125 
L 2.296875 54.6875 
L 10.890625 54.6875 
L 10.890625 58.5 
Q 10.890625 67.625 15.140625 71.796875 
Q 19.390625 75.984375 28.609375 75.984375 
z
" id="DejaVuSans-66"/>
      <path d="M 45.40625 46.390625 
L 45.40625 75.984375 
L 54.390625 75.984375 
L 54.390625 0 
L 45.40625 0 
L 45.40625 8.203125 
Q 42.578125 3.328125 38.25 0.953125 
Q 33.9375 -1.421875 27.875 -1.421875 
Q 17.96875 -1.421875 11.734375 6.484375 
Q 5.515625 14.40625 5.515625 27.296875 
Q 5.515625 40.1875 11.734375 48.09375 
Q 17.96875 56 27.875 56 
Q 33.9375 56 38.25 53.625 
Q 42.578125 51.265625 45.40625 46.390625 
z
M 14.796875 27.296875 
Q 14.796875 17.390625 18.875 11.75 
Q 22.953125 6.109375 30.078125 6.109375 
Q 37.203125 6.109375 41.296875 11.75 
Q 45.40625 17.390625 45.40625 27.296875 
Q 45.40625 37.203125 41.296875 42.84375 
Q 37.203125 48.484375 30.078125 48.484375 
Q 22.953125 48.484375 18.875 42.84375 
Q 14.796875 37.203125 14.796875 27.296875 
z
" id="DejaVuSans-64"/>
      <path d="M 9.421875 54.6875 
L 18.40625 54.6875 
L 18.40625 0 
L 9.421875 0 
z
M 9.421875 75.984375 
L 18.40625 75.984375 
L 18.40625 64.59375 
L 9.421875 64.59375 
z
" id="DejaVuSans-69"/>
      <path d="M 45.40625 27.984375 
Q 45.40625 37.75 41.375 43.109375 
Q 37.359375 48.484375 30.078125 48.484375 
Q 22.859375 48.484375 18.828125 43.109375 
Q 14.796875 37.75 14.796875 27.984375 
Q 14.796875 18.265625 18.828125 12.890625 
Q 22.859375 7.515625 30.078125 7.515625 
Q 37.359375 7.515625 41.375 12.890625 
Q 45.40625 18.265625 45.40625 27.984375 
z
M 54.390625 6.78125 
Q 54.390625 -7.171875 48.1875 -13.984375 
Q 42 -20.796875 29.203125 -20.796875 
Q 24.46875 -20.796875 20.265625 -20.09375 
Q 16.0625 -19.390625 12.109375 -17.921875 
L 12.109375 -9.1875 
Q 16.0625 -11.328125 19.921875 -12.34375 
Q 23.78125 -13.375 27.78125 -13.375 
Q 36.625 -13.375 41.015625 -8.765625 
Q 45.40625 -4.15625 45.40625 5.171875 
L 45.40625 9.625 
Q 42.625 4.78125 38.28125 2.390625 
Q 33.9375 0 27.875 0 
Q 17.828125 0 11.671875 7.65625 
Q 5.515625 15.328125 5.515625 27.984375 
Q 5.515625 40.671875 11.671875 48.328125 
Q 17.828125 56 27.875 56 
Q 33.9375 56 38.28125 53.609375 
Q 42.625 51.21875 45.40625 46.390625 
L 45.40625 54.6875 
L 54.390625 54.6875 
z
" id="DejaVuSans-67"/>
      <path d="M 18.3125 70.21875 
L 18.3125 54.6875 
L 36.8125 54.6875 
L 36.8125 47.703125 
L 18.3125 47.703125 
L 18.3125 18.015625 
Q 18.3125 11.328125 20.140625 9.421875 
Q 21.96875 7.515625 27.59375 7.515625 
L 36.8125 7.515625 
L 36.8125 0 
L 27.59375 0 
Q 17.1875 0 13.234375 3.875 
Q 9.28125 7.765625 9.28125 18.015625 
L 9.28125 47.703125 
L 2.6875 47.703125 
L 2.6875 54.6875 
L 9.28125 54.6875 
L 9.28125 70.21875 
z
" id="DejaVuSans-74"/>
      <path d="M 44.28125 53.078125 
L 44.28125 44.578125 
Q 40.484375 46.53125 36.375 47.5 
Q 32.28125 48.484375 27.875 48.484375 
Q 21.1875 48.484375 17.84375 46.4375 
Q 14.5 44.390625 14.5 40.28125 
Q 14.5 37.15625 16.890625 35.375 
Q 19.28125 33.59375 26.515625 31.984375 
L 29.59375 31.296875 
Q 39.15625 29.25 43.1875 25.515625 
Q 47.21875 21.78125 47.21875 15.09375 
Q 47.21875 7.46875 41.1875 3.015625 
Q 35.15625 -1.421875 24.609375 -1.421875 
Q 20.21875 -1.421875 15.453125 -0.5625 
Q 10.6875 0.296875 5.421875 2 
L 5.421875 11.28125 
Q 10.40625 8.6875 15.234375 7.390625 
Q 20.0625 6.109375 24.8125 6.109375 
Q 31.15625 6.109375 34.5625 8.28125 
Q 37.984375 10.453125 37.984375 14.40625 
Q 37.984375 18.0625 35.515625 20.015625 
Q 33.0625 21.96875 24.703125 23.78125 
L 21.578125 24.515625 
Q 13.234375 26.265625 9.515625 29.90625 
Q 5.8125 33.546875 5.8125 39.890625 
Q 5.8125 47.609375 11.28125 51.796875 
Q 16.75 56 26.8125 56 
Q 31.78125 56 36.171875 55.265625 
Q 40.578125 54.546875 44.28125 53.078125 
z
" id="DejaVuSans-73"/>
      <path d="M 54.890625 33.015625 
L 54.890625 0 
L 45.90625 0 
L 45.90625 32.71875 
Q 45.90625 40.484375 42.875 44.328125 
Q 39.84375 48.1875 33.796875 48.1875 
Q 26.515625 48.1875 22.3125 43.546875 
Q 18.109375 38.921875 18.109375 30.90625 
L 18.109375 0 
L 9.078125 0 
L 9.078125 54.6875 
L 18.109375 54.6875 
L 18.109375 46.1875 
Q 21.34375 51.125 25.703125 53.5625 
Q 30.078125 56 35.796875 56 
Q 45.21875 56 50.046875 50.171875 
Q 54.890625 44.34375 54.890625 33.015625 
z
" id="DejaVuSans-6e"/>
      <path d="M 34.28125 27.484375 
Q 23.390625 27.484375 19.1875 25 
Q 14.984375 22.515625 14.984375 16.5 
Q 14.984375 11.71875 18.140625 8.90625 
Q 21.296875 6.109375 26.703125 6.109375 
Q 34.1875 6.109375 38.703125 11.40625 
Q 43.21875 16.703125 43.21875 25.484375 
L 43.21875 27.484375 
z
M 52.203125 31.203125 
L 52.203125 0 
L 43.21875 0 
L 43.21875 8.296875 
Q 40.140625 3.328125 35.546875 0.953125 
Q 30.953125 -1.421875 24.3125 -1.421875 
Q 15.921875 -1.421875 10.953125 3.296875 
Q 6 8.015625 6 15.921875 
Q 6 25.140625 12.171875 29.828125 
Q 18.359375 34.515625 30.609375 34.515625 
L 43.21875 34.515625 
L 43.21875 35.40625 
Q 43.21875 41.609375 39.140625 45 
Q 35.0625 48.390625 27.6875 48.390625 
Q 23 48.390625 18.546875 47.265625 
Q 14.109375 46.140625 10.015625 43.890625 
L 10.015625 52.203125 
Q 14.9375 54.109375 19.578125 55.046875 
Q 24.21875 56 28.609375 56 
Q 40.484375 56 46.34375 49.84375 
Q 52.203125 43.703125 52.203125 31.203125 
z
" id="DejaVuSans-61"/>
      <path d="M 54.890625 54.6875 
L 35.109375 28.078125 
L 55.90625 0 
L 45.3125 0 
L 29.390625 21.484375 
L 13.484375 0 
L 2.875 0 
L 24.125 28.609375 
L 4.6875 54.6875 
L 15.28125 54.6875 
L 29.78125 35.203125 
L 44.28125 54.6875 
z
" id="DejaVuSans-78"/>
      <path d="M 14.796875 27.296875 
Q 14.796875 17.390625 18.875 11.75 
Q 22.953125 6.109375 30.078125 6.109375 
Q 37.203125 6.109375 41.296875 11.75 
Q 45.40625 17.390625 45.40625 27.296875 
Q 45.40625 37.203125 41.296875 42.84375 
Q 37.203125 48.484375 30.078125 48.484375 
Q 22.953125 48.484375 18.875 42.84375 
Q 14.796875 37.203125 14.796875 27.296875 
z
M 45.40625 8.203125 
Q 42.578125 3.328125 38.25 0.953125 
Q 33.9375 -1.421875 27.875 -1.421875 
Q 17.96875 -1.421875 11.734375 6.484375 
Q 5.515625 14.40625 5.515625 27.296875 
Q 5.515625 40.1875 11.734375 48.09375 
Q 17.96875 56 27.875 56 
Q 33.9375 56 38.25 53.625 
Q 42.578125 51.265625 45.40625 46.390625 
L 45.40625 54.6875 
L 54.390625 54.6875 
L 54.390625 -20.796875 
L 45.40625 -20.796875 
z
" id="DejaVuSans-71"/>
      <path d="M 48.78125 52.59375 
L 48.78125 44.1875 
Q 44.96875 46.296875 41.140625 47.34375 
Q 37.3125 48.390625 33.40625 48.390625 
Q 24.65625 48.390625 19.8125 42.84375 
Q 14.984375 37.3125 14.984375 27.296875 
Q 14.984375 17.28125 19.8125 11.734375 
Q 24.65625 6.203125 33.40625 6.203125 
Q 37.3125 6.203125 41.140625 7.25 
Q 44.96875 8.296875 48.78125 10.40625 
L 48.78125 2.09375 
Q 45.015625 0.34375 40.984375 -0.53125 
Q 36.96875 -1.421875 32.421875 -1.421875 
Q 20.0625 -1.421875 12.78125 6.34375 
Q 5.515625 14.109375 5.515625 27.296875 
Q 5.515625 40.671875 12.859375 48.328125 
Q 20.21875 56 33.015625 56 
Q 37.15625 56 41.109375 55.140625 
Q 45.0625 54.296875 48.78125 52.59375 
z
" id="DejaVuSans-63"/>
     </defs>
     <g transform="translate(511.581094 942.270156)scale(0.33 -0.33)">
      <use xlink:href="#DejaVuSans-4e"/>
      <use x="74.804688" xlink:href="#DejaVuSans-75"/>
      <use x="138.183594" xlink:href="#DejaVuSans-6d"/>
      <use x="235.595703" xlink:href="#DejaVuSans-62"/>
      <use x="299.072266" xlink:href="#DejaVuSans-65"/>
      <use x="360.595703" xlink:href="#DejaVuSans-72"/>
      <use x="401.708984" xlink:href="#DejaVuSans-20"/>
      <use x="433.496094" xlink:href="#DejaVuSans-6f"/>
      <use x="494.677734" xlink:href="#DejaVuSans-66"/>
      <use x="529.882812" xlink:href="#DejaVuSans-20"/>
      <use x="561.669922" xlink:href="#DejaVuSans-64"/>
      <use x="625.146484" xlink:href="#DejaVuSans-69"/>
      <use x="652.929688" xlink:href="#DejaVuSans-67"/>
      <use x="716.40625" xlink:href="#DejaVuSans-69"/>
      <use x="744.189453" xlink:href="#DejaVuSans-74"/>
      <use x="783.398438" xlink:href="#DejaVuSans-73"/>
      <use x="835.498047" xlink:href="#DejaVuSans-20"/>
      <use x="867.285156" xlink:href="#DejaVuSans-69"/>
      <use x="895.068359" xlink:href="#DejaVuSans-6e"/>
      <use x="958.447266" xlink:href="#DejaVuSans-20"/>
      <use x="990.234375" xlink:href="#DejaVuSans-6d"/>
      <use x="1087.646484" xlink:href="#DejaVuSans-61"/>
      <use x="1148.925781" xlink:href="#DejaVuSans-78"/>
      <use x="1208.105469" xlink:href="#DejaVuSans-20"/>
      <use x="1239.892578" xlink:href="#DejaVuSans-6e"/>
      <use x="1303.271484" xlink:href="#DejaVuSans-75"/>
      <use x="1366.650391" xlink:href="#DejaVuSans-6d"/>
      <use x="1464.0625" xlink:href="#DejaVuSans-62"/>
      <use x="1527.539062" xlink:href="#DejaVuSans-65"/>
      <use x="1589.0625" xlink:href="#DejaVuSans-72"/>
      <use x="1630.175781" xlink:href="#DejaVuSans-20"/>
      <use x="1661.962891" xlink:href="#DejaVuSans-69"/>
      <use x="1689.746094" xlink:href="#DejaVuSans-6e"/>
      <use x="1753.125" xlink:href="#DejaVuSans-20"/>
      <use x="1784.912109" xlink:href="#DejaVuSans-73"/>
      <use x="1837.011719" xlink:href="#DejaVuSans-65"/>
      <use x="1898.535156" xlink:href="#DejaVuSans-71"/>
      <use x="1962.011719" xlink:href="#DejaVuSans-75"/>
      <use x="2025.390625" xlink:href="#DejaVuSans-65"/>
      <use x="2086.914062" xlink:href="#DejaVuSans-6e"/>
      <use x="2150.292969" xlink:href="#DejaVuSans-63"/>
      <use x="2205.273438" xlink:href="#DejaVuSans-65"/>
     </g>
    </g>
   </g>
   <g id="matplotlib.axis_2">
    <g id="ytick_1">
     <g id="line2d_11">
      <path clip-path="url(#p18435d4034)" d="M 216 847.407273 
L 1555.2 847.407273 
" style="fill:none;stroke:#b0b0b0;stroke-linecap:square;stroke-width:0.8;"/>
     </g>
     <g id="line2d_12">
      <defs>
       <path d="M 0 0 
L -3.5 0 
" id="m35a57ef264" style="stroke:#000000;stroke-width:0.8;"/>
      </defs>
      <g>
       <use style="stroke:#000000;stroke-width:0.8;" x="216" xlink:href="#m35a57ef264" y="847.407273"/>
      </g>
     </g>
     <g id="text_7">
      <!-- $\mathdefault{10^{0}}$ -->
      <g transform="translate(165 856.90532)scale(0.25 -0.25)">
       <use transform="translate(0 0.765625)" xlink:href="#DejaVuSans-31"/>
       <use transform="translate(63.623047 0.765625)" xlink:href="#DejaVuSans-30"/>
       <use transform="translate(128.203125 39.046875)scale(0.7)" xlink:href="#DejaVuSans-30"/>
      </g>
     </g>
    </g>
    <g id="ytick_2">
     <g id="line2d_13">
      <path clip-path="url(#p18435d4034)" d="M 216 696.245573 
L 1555.2 696.245573 
" style="fill:none;stroke:#b0b0b0;stroke-linecap:square;stroke-width:0.8;"/>
     </g>
     <g id="line2d_14">
      <g>
       <use style="stroke:#000000;stroke-width:0.8;" x="216" xlink:href="#m35a57ef264" y="696.245573"/>
      </g>
     </g>
     <g id="text_8">
      <!-- $\mathdefault{10^{1}}$ -->
      <g transform="translate(165 705.74362)scale(0.25 -0.25)">
       <use transform="translate(0 0.684375)" xlink:href="#DejaVuSans-31"/>
       <use transform="translate(63.623047 0.684375)" xlink:href="#DejaVuSans-30"/>
       <use transform="translate(128.203125 38.965625)scale(0.7)" xlink:href="#DejaVuSans-31"/>
      </g>
     </g>
    </g>
    <g id="ytick_3">
     <g id="line2d_15">
      <path clip-path="url(#p18435d4034)" d="M 216 545.083874 
L 1555.2 545.083874 
" style="fill:none;stroke:#b0b0b0;stroke-linecap:square;stroke-width:0.8;"/>
     </g>
     <g id="line2d_16">
      <g>
       <use style="stroke:#000000;stroke-width:0.8;" x="216" xlink:href="#m35a57ef264" y="545.083874"/>
      </g>
     </g>
     <g id="text_9">
      <!-- $\mathdefault{10^{2}}$ -->
      <g transform="translate(165 554.581921)scale(0.25 -0.25)">
       <use transform="translate(0 0.765625)" xlink:href="#DejaVuSans-31"/>
       <use transform="translate(63.623047 0.765625)" xlink:href="#DejaVuSans-30"/>
       <use transform="translate(128.203125 39.046875)scale(0.7)" xlink:href="#DejaVuSans-32"/>
      </g>
     </g>
    </g>
    <g id="ytick_4">
     <g id="line2d_17">
      <path clip-path="url(#p18435d4034)" d="M 216 393.922174 
L 1555.2 393.922174 
" style="fill:none;stroke:#b0b0b0;stroke-linecap:square;stroke-width:0.8;"/>
     </g>
     <g id="line2d_18">
      <g>
       <use style="stroke:#000000;stroke-width:0.8;" x="216" xlink:href="#m35a57ef264" y="393.922174"/>
      </g>
     </g>
     <g id="text_10">
      <!-- $\mathdefault{10^{3}}$ -->
      <defs>
       <path d="M 40.578125 39.3125 
Q 47.65625 37.796875 51.625 33 
Q 55.609375 28.21875 55.609375 21.1875 
Q 55.609375 10.40625 48.1875 4.484375 
Q 40.765625 -1.421875 27.09375 -1.421875 
Q 22.515625 -1.421875 17.65625 -0.515625 
Q 12.796875 0.390625 7.625 2.203125 
L 7.625 11.71875 
Q 11.71875 9.328125 16.59375 8.109375 
Q 21.484375 6.890625 26.8125 6.890625 
Q 36.078125 6.890625 40.9375 10.546875 
Q 45.796875 14.203125 45.796875 21.1875 
Q 45.796875 27.640625 41.28125 31.265625 
Q 36.765625 34.90625 28.71875 34.90625 
L 20.21875 34.90625 
L 20.21875 43.015625 
L 29.109375 43.015625 
Q 36.375 43.015625 40.234375 45.921875 
Q 44.09375 48.828125 44.09375 54.296875 
Q 44.09375 59.90625 40.109375 62.90625 
Q 36.140625 65.921875 28.71875 65.921875 
Q 24.65625 65.921875 20.015625 65.03125 
Q 15.375 64.15625 9.8125 62.3125 
L 9.8125 71.09375 
Q 15.4375 72.65625 20.34375 73.4375 
Q 25.25 74.21875 29.59375 74.21875 
Q 40.828125 74.21875 47.359375 69.109375 
Q 53.90625 64.015625 53.90625 55.328125 
Q 53.90625 49.265625 50.4375 45.09375 
Q 46.96875 40.921875 40.578125 39.3125 
z
" id="DejaVuSans-33"/>
      </defs>
      <g transform="translate(165 403.420221)scale(0.25 -0.25)">
       <use transform="translate(0 0.765625)" xlink:href="#DejaVuSans-31"/>
       <use transform="translate(63.623047 0.765625)" xlink:href="#DejaVuSans-30"/>
       <use transform="translate(128.203125 39.046875)scale(0.7)" xlink:href="#DejaVuSans-33"/>
      </g>
     </g>
    </g>
    <g id="ytick_5">
     <g id="line2d_19">
      <path clip-path="url(#p18435d4034)" d="M 216 242.760475 
L 1555.2 242.760475 
" style="fill:none;stroke:#b0b0b0;stroke-linecap:square;stroke-width:0.8;"/>
     </g>
     <g id="line2d_20">
      <g>
       <use style="stroke:#000000;stroke-width:0.8;" x="216" xlink:href="#m35a57ef264" y="242.760475"/>
      </g>
     </g>
     <g id="text_11">
      <!-- $\mathdefault{10^{4}}$ -->
      <defs>
       <path d="M 37.796875 64.3125 
L 12.890625 25.390625 
L 37.796875 25.390625 
z
M 35.203125 72.90625 
L 47.609375 72.90625 
L 47.609375 25.390625 
L 58.015625 25.390625 
L 58.015625 17.1875 
L 47.609375 17.1875 
L 47.609375 0 
L 37.796875 0 
L 37.796875 17.1875 
L 4.890625 17.1875 
L 4.890625 26.703125 
z
" id="DejaVuSans-34"/>
      </defs>
      <g transform="translate(165 252.258522)scale(0.25 -0.25)">
       <use transform="translate(0 0.684375)" xlink:href="#DejaVuSans-31"/>
       <use transform="translate(63.623047 0.684375)" xlink:href="#DejaVuSans-30"/>
       <use transform="translate(128.203125 38.965625)scale(0.7)" xlink:href="#DejaVuSans-34"/>
      </g>
     </g>
    </g>
    <g id="ytick_6">
     <g id="line2d_21">
      <defs>
       <path d="M 0 0 
L -2 0 
" id="m467a7e4488" style="stroke:#000000;stroke-width:0.6;"/>
      </defs>
      <g>
       <use style="stroke:#000000;stroke-width:0.6;" x="216" xlink:href="#m467a7e4488" y="880.942307"/>
      </g>
     </g>
    </g>
    <g id="ytick_7">
     <g id="line2d_22">
      <g>
       <use style="stroke:#000000;stroke-width:0.6;" x="216" xlink:href="#m467a7e4488" y="870.822516"/>
      </g>
     </g>
    </g>
    <g id="ytick_8">
     <g id="line2d_23">
      <g>
       <use style="stroke:#000000;stroke-width:0.6;" x="216" xlink:href="#m467a7e4488" y="862.056355"/>
      </g>
     </g>
    </g>
    <g id="ytick_9">
     <g id="line2d_24">
      <g>
       <use style="stroke:#000000;stroke-width:0.6;" x="216" xlink:href="#m467a7e4488" y="854.324053"/>
      </g>
     </g>
    </g>
    <g id="ytick_10">
     <g id="line2d_25">
      <g>
       <use style="stroke:#000000;stroke-width:0.6;" x="216" xlink:href="#m467a7e4488" y="801.903067"/>
      </g>
     </g>
    </g>
    <g id="ytick_11">
     <g id="line2d_26">
      <g>
       <use style="stroke:#000000;stroke-width:0.6;" x="216" xlink:href="#m467a7e4488" y="775.284813"/>
      </g>
     </g>
    </g>
    <g id="ytick_12">
     <g id="line2d_27">
      <g>
       <use style="stroke:#000000;stroke-width:0.6;" x="216" xlink:href="#m467a7e4488" y="756.398861"/>
      </g>
     </g>
    </g>
    <g id="ytick_13">
     <g id="line2d_28">
      <g>
       <use style="stroke:#000000;stroke-width:0.6;" x="216" xlink:href="#m467a7e4488" y="741.749779"/>
      </g>
     </g>
    </g>
    <g id="ytick_14">
     <g id="line2d_29">
      <g>
       <use style="stroke:#000000;stroke-width:0.6;" x="216" xlink:href="#m467a7e4488" y="729.780607"/>
      </g>
     </g>
    </g>
    <g id="ytick_15">
     <g id="line2d_30">
      <g>
       <use style="stroke:#000000;stroke-width:0.6;" x="216" xlink:href="#m467a7e4488" y="719.660817"/>
      </g>
     </g>
    </g>
    <g id="ytick_16">
     <g id="line2d_31">
      <g>
       <use style="stroke:#000000;stroke-width:0.6;" x="216" xlink:href="#m467a7e4488" y="710.894656"/>
      </g>
     </g>
    </g>
    <g id="ytick_17">
     <g id="line2d_32">
      <g>
       <use style="stroke:#000000;stroke-width:0.6;" x="216" xlink:href="#m467a7e4488" y="703.162353"/>
      </g>
     </g>
    </g>
    <g id="ytick_18">
     <g id="line2d_33">
      <g>
       <use style="stroke:#000000;stroke-width:0.6;" x="216" xlink:href="#m467a7e4488" y="650.741368"/>
      </g>
     </g>
    </g>
    <g id="ytick_19">
     <g id="line2d_34">
      <g>
       <use style="stroke:#000000;stroke-width:0.6;" x="216" xlink:href="#m467a7e4488" y="624.123114"/>
      </g>
     </g>
    </g>
    <g id="ytick_20">
     <g id="line2d_35">
      <g>
       <use style="stroke:#000000;stroke-width:0.6;" x="216" xlink:href="#m467a7e4488" y="605.237162"/>
      </g>
     </g>
    </g>
    <g id="ytick_21">
     <g id="line2d_36">
      <g>
       <use style="stroke:#000000;stroke-width:0.6;" x="216" xlink:href="#m467a7e4488" y="590.58808"/>
      </g>
     </g>
    </g>
    <g id="ytick_22">
     <g id="line2d_37">
      <g>
       <use style="stroke:#000000;stroke-width:0.6;" x="216" xlink:href="#m467a7e4488" y="578.618908"/>
      </g>
     </g>
    </g>
    <g id="ytick_23">
     <g id="line2d_38">
      <g>
       <use style="stroke:#000000;stroke-width:0.6;" x="216" xlink:href="#m467a7e4488" y="568.499117"/>
      </g>
     </g>
    </g>
    <g id="ytick_24">
     <g id="line2d_39">
      <g>
       <use style="stroke:#000000;stroke-width:0.6;" x="216" xlink:href="#m467a7e4488" y="559.732956"/>
      </g>
     </g>
    </g>
    <g id="ytick_25">
     <g id="line2d_40">
      <g>
       <use style="stroke:#000000;stroke-width:0.6;" x="216" xlink:href="#m467a7e4488" y="552.000654"/>
      </g>
     </g>
    </g>
    <g id="ytick_26">
     <g id="line2d_41">
      <g>
       <use style="stroke:#000000;stroke-width:0.6;" x="216" xlink:href="#m467a7e4488" y="499.579668"/>
      </g>
     </g>
    </g>
    <g id="ytick_27">
     <g id="line2d_42">
      <g>
       <use style="stroke:#000000;stroke-width:0.6;" x="216" xlink:href="#m467a7e4488" y="472.961414"/>
      </g>
     </g>
    </g>
    <g id="ytick_28">
     <g id="line2d_43">
      <g>
       <use style="stroke:#000000;stroke-width:0.6;" x="216" xlink:href="#m467a7e4488" y="454.075462"/>
      </g>
     </g>
    </g>
    <g id="ytick_29">
     <g id="line2d_44">
      <g>
       <use style="stroke:#000000;stroke-width:0.6;" x="216" xlink:href="#m467a7e4488" y="439.42638"/>
      </g>
     </g>
    </g>
    <g id="ytick_30">
     <g id="line2d_45">
      <g>
       <use style="stroke:#000000;stroke-width:0.6;" x="216" xlink:href="#m467a7e4488" y="427.457208"/>
      </g>
     </g>
    </g>
    <g id="ytick_31">
     <g id="line2d_46">
      <g>
       <use style="stroke:#000000;stroke-width:0.6;" x="216" xlink:href="#m467a7e4488" y="417.337418"/>
      </g>
     </g>
    </g>
    <g id="ytick_32">
     <g id="line2d_47">
      <g>
       <use style="stroke:#000000;stroke-width:0.6;" x="216" xlink:href="#m467a7e4488" y="408.571257"/>
      </g>
     </g>
    </g>
    <g id="ytick_33">
     <g id="line2d_48">
      <g>
       <use style="stroke:#000000;stroke-width:0.6;" x="216" xlink:href="#m467a7e4488" y="400.838954"/>
      </g>
     </g>
    </g>
    <g id="ytick_34">
     <g id="line2d_49">
      <g>
       <use style="stroke:#000000;stroke-width:0.6;" x="216" xlink:href="#m467a7e4488" y="348.417969"/>
      </g>
     </g>
    </g>
    <g id="ytick_35">
     <g id="line2d_50">
      <g>
       <use style="stroke:#000000;stroke-width:0.6;" x="216" xlink:href="#m467a7e4488" y="321.799715"/>
      </g>
     </g>
    </g>
    <g id="ytick_36">
     <g id="line2d_51">
      <g>
       <use style="stroke:#000000;stroke-width:0.6;" x="216" xlink:href="#m467a7e4488" y="302.913763"/>
      </g>
     </g>
    </g>
    <g id="ytick_37">
     <g id="line2d_52">
      <g>
       <use style="stroke:#000000;stroke-width:0.6;" x="216" xlink:href="#m467a7e4488" y="288.264681"/>
      </g>
     </g>
    </g>
    <g id="ytick_38">
     <g id="line2d_53">
      <g>
       <use style="stroke:#000000;stroke-width:0.6;" x="216" xlink:href="#m467a7e4488" y="276.295509"/>
      </g>
     </g>
    </g>
    <g id="ytick_39">
     <g id="line2d_54">
      <g>
       <use style="stroke:#000000;stroke-width:0.6;" x="216" xlink:href="#m467a7e4488" y="266.175718"/>
      </g>
     </g>
    </g>
    <g id="ytick_40">
     <g id="line2d_55">
      <g>
       <use style="stroke:#000000;stroke-width:0.6;" x="216" xlink:href="#m467a7e4488" y="257.409557"/>
      </g>
     </g>
    </g>
    <g id="ytick_41">
     <g id="line2d_56">
      <g>
       <use style="stroke:#000000;stroke-width:0.6;" x="216" xlink:href="#m467a7e4488" y="249.677255"/>
      </g>
     </g>
    </g>
    <g id="ytick_42">
     <g id="line2d_57">
      <g>
       <use style="stroke:#000000;stroke-width:0.6;" x="216" xlink:href="#m467a7e4488" y="197.256269"/>
      </g>
     </g>
    </g>
    <g id="ytick_43">
     <g id="line2d_58">
      <g>
       <use style="stroke:#000000;stroke-width:0.6;" x="216" xlink:href="#m467a7e4488" y="170.638015"/>
      </g>
     </g>
    </g>
    <g id="ytick_44">
     <g id="line2d_59">
      <g>
       <use style="stroke:#000000;stroke-width:0.6;" x="216" xlink:href="#m467a7e4488" y="151.752063"/>
      </g>
     </g>
    </g>
    <g id="ytick_45">
     <g id="line2d_60">
      <g>
       <use style="stroke:#000000;stroke-width:0.6;" x="216" xlink:href="#m467a7e4488" y="137.102981"/>
      </g>
     </g>
    </g>
    <g id="ytick_46">
     <g id="line2d_61">
      <g>
       <use style="stroke:#000000;stroke-width:0.6;" x="216" xlink:href="#m467a7e4488" y="125.133809"/>
      </g>
     </g>
    </g>
    <g id="text_12">
     <!-- Frequency of occurrence -->
     <defs>
      <path d="M 9.8125 72.90625 
L 51.703125 72.90625 
L 51.703125 64.59375 
L 19.671875 64.59375 
L 19.671875 43.109375 
L 48.578125 43.109375 
L 48.578125 34.8125 
L 19.671875 34.8125 
L 19.671875 0 
L 9.8125 0 
z
" id="DejaVuSans-46"/>
      <path d="M 32.171875 -5.078125 
Q 28.375 -14.84375 24.75 -17.8125 
Q 21.140625 -20.796875 15.09375 -20.796875 
L 7.90625 -20.796875 
L 7.90625 -13.28125 
L 13.1875 -13.28125 
Q 16.890625 -13.28125 18.9375 -11.515625 
Q 21 -9.765625 23.484375 -3.21875 
L 25.09375 0.875 
L 2.984375 54.6875 
L 12.5 54.6875 
L 29.59375 11.921875 
L 46.6875 54.6875 
L 56.203125 54.6875 
z
" id="DejaVuSans-79"/>
     </defs>
     <g transform="translate(154.137031 706.745156)rotate(-90)scale(0.33 -0.33)">
      <use xlink:href="#DejaVuSans-46"/>
      <use x="57.410156" xlink:href="#DejaVuSans-72"/>
      <use x="98.492188" xlink:href="#DejaVuSans-65"/>
      <use x="160.015625" xlink:href="#DejaVuSans-71"/>
      <use x="223.492188" xlink:href="#DejaVuSans-75"/>
      <use x="286.871094" xlink:href="#DejaVuSans-65"/>
      <use x="348.394531" xlink:href="#DejaVuSans-6e"/>
      <use x="411.773438" xlink:href="#DejaVuSans-63"/>
      <use x="466.753906" xlink:href="#DejaVuSans-79"/>
      <use x="525.933594" xlink:href="#DejaVuSans-20"/>
      <use x="557.720703" xlink:href="#DejaVuSans-6f"/>
      <use x="618.902344" xlink:href="#DejaVuSans-66"/>
      <use x="654.107422" xlink:href="#DejaVuSans-20"/>
      <use x="685.894531" xlink:href="#DejaVuSans-6f"/>
      <use x="747.076172" xlink:href="#DejaVuSans-63"/>
      <use x="802.056641" xlink:href="#DejaVuSans-63"/>
      <use x="857.037109" xlink:href="#DejaVuSans-75"/>
      <use x="920.416016" xlink:href="#DejaVuSans-72"/>
      <use x="961.513672" xlink:href="#DejaVuSans-72"/>
      <use x="1002.595703" xlink:href="#DejaVuSans-65"/>
      <use x="1064.119141" xlink:href="#DejaVuSans-6e"/>
      <use x="1127.498047" xlink:href="#DejaVuSans-63"/>
      <use x="1182.478516" xlink:href="#DejaVuSans-65"/>
     </g>
    </g>
   </g>
   <g id="patch_83">
    <path d="M 216 882 
L 216 120.96 
" style="fill:none;stroke:#000000;stroke-linecap:square;stroke-linejoin:miter;stroke-width:0.8;"/>
   </g>
   <g id="patch_84">
    <path d="M 1555.2 882 
L 1555.2 120.96 
" style="fill:none;stroke:#000000;stroke-linecap:square;stroke-linejoin:miter;stroke-width:0.8;"/>
   </g>
   <g id="patch_85">
    <path d="M 216 882 
L 1555.2 882 
" style="fill:none;stroke:#000000;stroke-linecap:square;stroke-linejoin:miter;stroke-width:0.8;"/>
   </g>
   <g id="patch_86">
    <path d="M 216 120.96 
L 1555.2 120.96 
" style="fill:none;stroke:#000000;stroke-linecap:square;stroke-linejoin:miter;stroke-width:0.8;"/>
   </g>
   <g id="text_13">
    <!-- Max numbers of digits: 206 -->
    <defs>
     <path d="M 9.8125 72.90625 
L 24.515625 72.90625 
L 43.109375 23.296875 
L 61.8125 72.90625 
L 76.515625 72.90625 
L 76.515625 0 
L 66.890625 0 
L 66.890625 64.015625 
L 48.09375 14.015625 
L 38.1875 14.015625 
L 19.390625 64.015625 
L 19.390625 0 
L 9.8125 0 
z
" id="DejaVuSans-4d"/>
     <path d="M 11.71875 12.40625 
L 22.015625 12.40625 
L 22.015625 0 
L 11.71875 0 
z
M 11.71875 51.703125 
L 22.015625 51.703125 
L 22.015625 39.3125 
L 11.71875 39.3125 
z
" id="DejaVuSans-3a"/>
     <path d="M 33.015625 40.375 
Q 26.375 40.375 22.484375 35.828125 
Q 18.609375 31.296875 18.609375 23.390625 
Q 18.609375 15.53125 22.484375 10.953125 
Q 26.375 6.390625 33.015625 6.390625 
Q 39.65625 6.390625 43.53125 10.953125 
Q 47.40625 15.53125 47.40625 23.390625 
Q 47.40625 31.296875 43.53125 35.828125 
Q 39.65625 40.375 33.015625 40.375 
z
M 52.59375 71.296875 
L 52.59375 62.3125 
Q 48.875 64.0625 45.09375 64.984375 
Q 41.3125 65.921875 37.59375 65.921875 
Q 27.828125 65.921875 22.671875 59.328125 
Q 17.53125 52.734375 16.796875 39.40625 
Q 19.671875 43.65625 24.015625 45.921875 
Q 28.375 48.1875 33.59375 48.1875 
Q 44.578125 48.1875 50.953125 41.515625 
Q 57.328125 34.859375 57.328125 23.390625 
Q 57.328125 12.15625 50.6875 5.359375 
Q 44.046875 -1.421875 33.015625 -1.421875 
Q 20.359375 -1.421875 13.671875 8.265625 
Q 6.984375 17.96875 6.984375 36.375 
Q 6.984375 53.65625 15.1875 63.9375 
Q 23.390625 74.21875 37.203125 74.21875 
Q 40.921875 74.21875 44.703125 73.484375 
Q 48.484375 72.75 52.59375 71.296875 
z
" id="DejaVuSans-36"/>
    </defs>
    <g transform="translate(924.202217 321.799715)scale(0.33 -0.33)">
     <use xlink:href="#DejaVuSans-4d"/>
     <use x="86.279297" xlink:href="#DejaVuSans-61"/>
     <use x="147.558594" xlink:href="#DejaVuSans-78"/>
     <use x="206.738281" xlink:href="#DejaVuSans-20"/>
     <use x="238.525391" xlink:href="#DejaVuSans-6e"/>
     <use x="301.904297" xlink:href="#DejaVuSans-75"/>
     <use x="365.283203" xlink:href="#DejaVuSans-6d"/>
     <use x="462.695312" xlink:href="#DejaVuSans-62"/>
     <use x="526.171875" xlink:href="#DejaVuSans-65"/>
     <use x="587.695312" xlink:href="#DejaVuSans-72"/>
     <use x="628.808594" xlink:href="#DejaVuSans-73"/>
     <use x="680.908203" xlink:href="#DejaVuSans-20"/>
     <use x="712.695312" xlink:href="#DejaVuSans-6f"/>
     <use x="773.876953" xlink:href="#DejaVuSans-66"/>
     <use x="809.082031" xlink:href="#DejaVuSans-20"/>
     <use x="840.869141" xlink:href="#DejaVuSans-64"/>
     <use x="904.345703" xlink:href="#DejaVuSans-69"/>
     <use x="932.128906" xlink:href="#DejaVuSans-67"/>
     <use x="995.605469" xlink:href="#DejaVuSans-69"/>
     <use x="1023.388672" xlink:href="#DejaVuSans-74"/>
     <use x="1062.597656" xlink:href="#DejaVuSans-73"/>
     <use x="1114.697266" xlink:href="#DejaVuSans-3a"/>
     <use x="1148.388672" xlink:href="#DejaVuSans-20"/>
     <use x="1180.175781" xlink:href="#DejaVuSans-32"/>
     <use x="1243.798828" xlink:href="#DejaVuSans-30"/>
     <use x="1307.421875" xlink:href="#DejaVuSans-36"/>
    </g>
   </g>
   <g id="text_14">
    <!-- Median: 5.0 -->
    <defs>
     <path d="M 10.6875 12.40625 
L 21 12.40625 
L 21 0 
L 10.6875 0 
z
" id="DejaVuSans-2e"/>
    </defs>
    <g transform="translate(924.202217 369.529513)scale(0.33 -0.33)">
     <use xlink:href="#DejaVuSans-4d"/>
     <use x="86.279297" xlink:href="#DejaVuSans-65"/>
     <use x="147.802734" xlink:href="#DejaVuSans-64"/>
     <use x="211.279297" xlink:href="#DejaVuSans-69"/>
     <use x="239.0625" xlink:href="#DejaVuSans-61"/>
     <use x="300.341797" xlink:href="#DejaVuSans-6e"/>
     <use x="363.720703" xlink:href="#DejaVuSans-3a"/>
     <use x="397.412109" xlink:href="#DejaVuSans-20"/>
     <use x="429.199219" xlink:href="#DejaVuSans-35"/>
     <use x="492.822266" xlink:href="#DejaVuSans-2e"/>
     <use x="524.609375" xlink:href="#DejaVuSans-30"/>
    </g>
   </g>
   <g id="text_15">
    <!-- Frequency of occurrence of max number of digits in max number in sequence (log scaled) -->
    <defs>
     <path d="M 31 75.875 
Q 24.46875 64.65625 21.28125 53.65625 
Q 18.109375 42.671875 18.109375 31.390625 
Q 18.109375 20.125 21.3125 9.0625 
Q 24.515625 -2 31 -13.1875 
L 23.1875 -13.1875 
Q 15.875 -1.703125 12.234375 9.375 
Q 8.59375 20.453125 8.59375 31.390625 
Q 8.59375 42.28125 12.203125 53.3125 
Q 15.828125 64.359375 23.1875 75.875 
z
" id="DejaVuSans-28"/>
     <path d="M 9.421875 75.984375 
L 18.40625 75.984375 
L 18.40625 0 
L 9.421875 0 
z
" id="DejaVuSans-6c"/>
     <path d="M 8.015625 75.875 
L 15.828125 75.875 
Q 23.140625 64.359375 26.78125 53.3125 
Q 30.421875 42.28125 30.421875 31.390625 
Q 30.421875 20.453125 26.78125 9.375 
Q 23.140625 -1.703125 15.828125 -13.1875 
L 8.015625 -13.1875 
Q 14.5 -2 17.703125 9.0625 
Q 20.90625 20.125 20.90625 31.390625 
Q 20.90625 42.671875 17.703125 53.65625 
Q 14.5 64.65625 8.015625 75.875 
z
" id="DejaVuSans-29"/>
    </defs>
    <g transform="translate(229.592813 114.96)scale(0.29 -0.29)">
     <use xlink:href="#DejaVuSans-46"/>
     <use x="57.410156" xlink:href="#DejaVuSans-72"/>
     <use x="98.492188" xlink:href="#DejaVuSans-65"/>
     <use x="160.015625" xlink:href="#DejaVuSans-71"/>
     <use x="223.492188" xlink:href="#DejaVuSans-75"/>
     <use x="286.871094" xlink:href="#DejaVuSans-65"/>
     <use x="348.394531" xlink:href="#DejaVuSans-6e"/>
     <use x="411.773438" xlink:href="#DejaVuSans-63"/>
     <use x="466.753906" xlink:href="#DejaVuSans-79"/>
     <use x="525.933594" xlink:href="#DejaVuSans-20"/>
     <use x="557.720703" xlink:href="#DejaVuSans-6f"/>
     <use x="618.902344" xlink:href="#DejaVuSans-66"/>
     <use x="654.107422" xlink:href="#DejaVuSans-20"/>
     <use x="685.894531" xlink:href="#DejaVuSans-6f"/>
     <use x="747.076172" xlink:href="#DejaVuSans-63"/>
     <use x="802.056641" xlink:href="#DejaVuSans-63"/>
     <use x="857.037109" xlink:href="#DejaVuSans-75"/>
     <use x="920.416016" xlink:href="#DejaVuSans-72"/>
     <use x="961.513672" xlink:href="#DejaVuSans-72"/>
     <use x="1002.595703" xlink:href="#DejaVuSans-65"/>
     <use x="1064.119141" xlink:href="#DejaVuSans-6e"/>
     <use x="1127.498047" xlink:href="#DejaVuSans-63"/>
     <use x="1182.478516" xlink:href="#DejaVuSans-65"/>
     <use x="1244.001953" xlink:href="#DejaVuSans-20"/>
     <use x="1275.789062" xlink:href="#DejaVuSans-6f"/>
     <use x="1336.970703" xlink:href="#DejaVuSans-66"/>
     <use x="1372.175781" xlink:href="#DejaVuSans-20"/>
     <use x="1403.962891" xlink:href="#DejaVuSans-6d"/>
     <use x="1501.375" xlink:href="#DejaVuSans-61"/>
     <use x="1562.654297" xlink:href="#DejaVuSans-78"/>
     <use x="1621.833984" xlink:href="#DejaVuSans-20"/>
     <use x="1653.621094" xlink:href="#DejaVuSans-6e"/>
     <use x="1717" xlink:href="#DejaVuSans-75"/>
     <use x="1780.378906" xlink:href="#DejaVuSans-6d"/>
     <use x="1877.791016" xlink:href="#DejaVuSans-62"/>
     <use x="1941.267578" xlink:href="#DejaVuSans-65"/>
     <use x="2002.791016" xlink:href="#DejaVuSans-72"/>
     <use x="2043.904297" xlink:href="#DejaVuSans-20"/>
     <use x="2075.691406" xlink:href="#DejaVuSans-6f"/>
     <use x="2136.873047" xlink:href="#DejaVuSans-66"/>
     <use x="2172.078125" xlink:href="#DejaVuSans-20"/>
     <use x="2203.865234" xlink:href="#DejaVuSans-64"/>
     <use x="2267.341797" xlink:href="#DejaVuSans-69"/>
     <use x="2295.125" xlink:href="#DejaVuSans-67"/>
     <use x="2358.601562" xlink:href="#DejaVuSans-69"/>
     <use x="2386.384766" xlink:href="#DejaVuSans-74"/>
     <use x="2425.59375" xlink:href="#DejaVuSans-73"/>
     <use x="2477.693359" xlink:href="#DejaVuSans-20"/>
     <use x="2509.480469" xlink:href="#DejaVuSans-69"/>
     <use x="2537.263672" xlink:href="#DejaVuSans-6e"/>
     <use x="2600.642578" xlink:href="#DejaVuSans-20"/>
     <use x="2632.429688" xlink:href="#DejaVuSans-6d"/>
     <use x="2729.841797" xlink:href="#DejaVuSans-61"/>
     <use x="2791.121094" xlink:href="#DejaVuSans-78"/>
     <use x="2850.300781" xlink:href="#DejaVuSans-20"/>
     <use x="2882.087891" xlink:href="#DejaVuSans-6e"/>
     <use x="2945.466797" xlink:href="#DejaVuSans-75"/>
     <use x="3008.845703" xlink:href="#DejaVuSans-6d"/>
     <use x="3106.257812" xlink:href="#DejaVuSans-62"/>
     <use x="3169.734375" xlink:href="#DejaVuSans-65"/>
     <use x="3231.257812" xlink:href="#DejaVuSans-72"/>
     <use x="3272.371094" xlink:href="#DejaVuSans-20"/>
     <use x="3304.158203" xlink:href="#DejaVuSans-69"/>
     <use x="3331.941406" xlink:href="#DejaVuSans-6e"/>
     <use x="3395.320312" xlink:href="#DejaVuSans-20"/>
     <use x="3427.107422" xlink:href="#DejaVuSans-73"/>
     <use x="3479.207031" xlink:href="#DejaVuSans-65"/>
     <use x="3540.730469" xlink:href="#DejaVuSans-71"/>
     <use x="3604.207031" xlink:href="#DejaVuSans-75"/>
     <use x="3667.585938" xlink:href="#DejaVuSans-65"/>
     <use x="3729.109375" xlink:href="#DejaVuSans-6e"/>
     <use x="3792.488281" xlink:href="#DejaVuSans-63"/>
     <use x="3847.46875" xlink:href="#DejaVuSans-65"/>
     <use x="3908.992188" xlink:href="#DejaVuSans-20"/>
     <use x="3940.779297" xlink:href="#DejaVuSans-28"/>
     <use x="3979.792969" xlink:href="#DejaVuSans-6c"/>
     <use x="4007.576172" xlink:href="#DejaVuSans-6f"/>
     <use x="4068.757812" xlink:href="#DejaVuSans-67"/>
     <use x="4132.234375" xlink:href="#DejaVuSans-20"/>
     <use x="4164.021484" xlink:href="#DejaVuSans-73"/>
     <use x="4216.121094" xlink:href="#DejaVuSans-63"/>
     <use x="4271.101562" xlink:href="#DejaVuSans-61"/>
     <use x="4332.380859" xlink:href="#DejaVuSans-6c"/>
     <use x="4360.164062" xlink:href="#DejaVuSans-65"/>
     <use x="4421.6875" xlink:href="#DejaVuSans-64"/>
     <use x="4485.164062" xlink:href="#DejaVuSans-29"/>
    </g>
   </g>
  </g>
 </g>
 <defs>
  <clipPath id="p18435d4034">
   <rect height="761.04" width="1339.2" x="216" y="120.96"/>
  </clipPath>
 </defs>
</svg>
